<svg width="100" height="100" viewBox="0 0 100 100" fill="none" xmlns="http://www.w3.org/2000/svg">
<path fill-rule="evenodd" clip-rule="evenodd" d="M1.49325 90.0272C0.15638 90.5962 0 92.3326 0 93.7855V95.9291C0 97.4577 0.219528 99.2817 1.66364 99.7829C2.11103 99.9382 2.61654 100.001 3.1758 100C17.4943 99.9892 31.8127 99.9833 46.1312 99.9824L46.1774 99.9826L46.2465 99.9832L46.3428 99.9845H46.3429C46.7275 99.9901 47.1131 99.9957 47.4791 99.8354C47.7756 99.7325 48.0279 99.5302 48.1936 99.2625C48.3593 98.9948 48.4283 98.6781 48.3891 98.3653C48.3782 98.0326 48.2452 97.7158 48.0158 97.4757C47.7863 97.2357 47.4766 97.0894 47.1462 97.0651C46.7896 97.0351 46.4314 97.0268 46.0738 97.0402C32.0807 97.0231 18.0876 97.03 4.0946 97.0608C3.17393 97.0628 2.80456 96.8737 2.91344 95.8947C2.97662 95.0794 2.98016 94.2605 2.92403 93.4447C2.9065 92.9588 3.02813 92.6913 3.56733 92.7611C3.76214 92.7746 3.95761 92.7758 4.15257 92.7645C34.7095 92.7773 65.2665 92.7696 95.8234 92.7416C96.8254 92.7407 97.2095 92.9673 97.0881 94.0071C97.0246 94.7896 97.0212 95.5759 97.0779 96.359C97.0967 96.8527 96.9522 97.0999 96.4238 97.0433C96.1638 97.0282 95.9033 97.0269 95.6433 97.0393C81.9756 97.0391 68.308 97.0393 54.6403 97.0399C54.5964 97.0399 54.5524 97.0396 54.5084 97.0392L54.3692 97.0377C54.101 97.0345 53.8327 97.0312 53.5672 97.0565C53.2362 97.0619 52.9196 97.1933 52.6812 97.4241C52.4428 97.6549 52.3005 97.968 52.2828 98.3001C52.1902 99.0824 52.5366 99.6519 53.2984 99.8654C53.7094 99.9592 54.1311 99.9974 54.5521 99.9788C68.6429 99.9651 82.7336 99.9721 96.8242 99.9998C97.3884 100.001 97.8983 99.9374 98.349 99.7795C99.7843 99.2765 100 97.4621 100 95.9412V93.7721C100 92.3278 99.8375 90.6059 98.5037 90.0518C98.031 89.8554 97.4826 89.7807 96.861 89.8005C94.5562 89.8741 94.5545 89.8184 94.5544 87.4828C94.5544 87.3342 94.555 87.1856 94.5555 87.037C94.5568 86.6958 94.5581 86.3546 94.5526 86.0134C94.526 84.3647 93.6664 83.4737 92.0426 83.4047C90.4529 83.3371 90.4529 83.3371 90.4529 81.697C90.4529 80.687 90.4542 79.6771 90.4555 78.6671V78.665C90.4592 75.7573 90.4629 72.8496 90.4359 69.9422C90.429 69.1991 90.6455 68.9274 91.3693 69.0285C91.6608 69.0556 91.9541 69.0559 92.2456 69.0293C93.587 68.967 94.4958 68.0809 94.5411 66.7355C94.5774 65.6592 94.5931 64.5787 94.5402 63.504C94.5053 62.7945 94.7779 62.5761 95.4364 62.638C95.6524 62.6583 95.8707 62.6521 96.0891 62.6458C96.2942 62.6399 96.4994 62.634 96.7027 62.6502C97.2812 62.696 97.8139 62.6553 98.289 62.5023C99.7702 62.0252 100 60.1541 100 58.598V56.358C100 54.9949 99.8854 53.3786 98.6639 52.7736C98.1922 52.54 97.632 52.4509 96.9813 52.4977C96.4778 52.5339 95.9713 52.525 95.4647 52.5162H95.4646H95.4645H95.4644H95.4643H95.4643C95.027 52.5085 94.5896 52.5009 94.1538 52.5222C93.5369 52.5524 93.3884 52.3129 93.3906 51.7308C93.4033 48.4221 93.4031 45.1133 93.4029 41.8046C93.4028 40.2451 93.4027 38.6855 93.404 37.126C93.404 37.0842 93.4026 37.0414 93.4012 36.9985C93.391 36.6896 93.3806 36.3757 93.9084 36.4195C96.7536 36.6557 98.5862 35.4345 99.6306 33.0903C99.9118 32.4591 100 31.7633 100 31.0723C100 30.462 99.9379 29.8446 99.6872 29.2882C98.9733 27.7037 97.6693 26.679 96.1119 25.7811C81.8279 17.5184 67.5508 9.24369 53.2807 0.956799C51.0831 -0.319405 48.9296 -0.319934 46.7251 0.961223C32.1518 9.43968 17.5669 17.8979 2.97041 26.3359C1.73692 27.049 0.913593 28.0197 0.36265 29.2173C0.08477 29.8214 0 30.4912 0 31.156C0 31.7918 0.0784407 32.4313 0.328291 33.0159C1.02657 34.6497 2.17308 35.844 4.06404 36.3201C4.66672 36.4627 5.28954 36.4986 5.90452 36.4264C6.39166 36.3775 6.61315 36.4768 6.61146 37.0298C6.59775 41.9645 6.59754 46.8992 6.61082 51.8339C6.61217 52.3348 6.46393 52.5355 5.94459 52.5188C5.52867 52.5054 5.1117 52.5121 4.69489 52.5188H4.69481H4.69473H4.69464H4.69456C4.1347 52.5278 3.57512 52.5369 3.0187 52.4971C2.37253 52.451 1.81647 52.5391 1.34754 52.7691C0.117055 53.3725 0 54.9989 0 56.3694V58.6246C0 60.1637 0.234513 62.0039 1.70107 62.4707C2.26866 62.6514 2.90953 62.6845 3.59058 62.6606C5.44721 62.5956 5.44867 62.6455 5.44907 64.4781C5.44912 64.6903 5.44787 64.9026 5.44662 65.1148C5.44365 65.6211 5.44068 66.1275 5.45521 66.6333C5.49697 68.0871 6.40167 68.9839 7.85068 69.0331C9.54708 69.0908 9.54709 69.0908 9.54709 70.8229C9.54708 71.8229 9.54584 72.823 9.54459 73.823C9.541 76.7091 9.5374 79.5951 9.56362 82.4809C9.57026 83.2121 9.37504 83.5071 8.63825 83.4103C8.31449 83.3769 7.98798 83.3808 7.66509 83.4218C6.32064 83.5578 5.48763 84.4513 5.45673 85.8201C5.43168 86.9299 5.42835 88.0411 5.45788 89.1506C5.47134 89.6563 5.31654 89.8619 4.79716 89.8281C4.53829 89.8112 4.2777 89.8177 4.01722 89.8241C3.72412 89.8314 3.43115 89.8386 3.14094 89.8127C2.51739 89.7569 1.96742 89.8254 1.49325 90.0272ZM94.0385 59.6945C79.3918 59.699 64.7451 59.7013 50.0984 59.7013C35.3542 59.7065 20.6101 59.7042 5.86586 59.6944C5.59134 59.6943 5.2917 59.7291 4.99092 59.764L4.99083 59.7641C4.2649 59.8484 3.53232 59.9336 3.13018 59.5292C2.725 59.1218 2.80079 58.4341 2.87786 57.7348C2.91665 57.3828 2.95576 57.0279 2.93406 56.7043C2.92687 56.597 2.92995 56.489 2.93303 56.381C2.93649 56.2595 2.93995 56.1381 2.9288 56.018C2.88937 55.5934 3.0629 55.4167 3.48686 55.4514C3.66343 55.4659 3.84148 55.4619 4.01956 55.4579C4.10231 55.4561 4.18506 55.4542 4.26768 55.4542C18.2307 55.4544 32.1938 55.4543 46.1568 55.454C47.6639 55.454 48.3728 55.0015 48.4086 54.0208C48.4456 53.0047 47.709 52.5106 46.1509 52.5106C34.3034 52.4958 22.456 52.5019 10.6086 52.5287C9.78315 52.5306 9.50198 52.3748 9.51018 51.4722C9.55772 46.2399 9.54497 41.0069 9.51907 35.7742C9.49077 35.4898 9.55181 35.2035 9.69362 34.9557C9.83543 34.7078 10.0509 34.5108 10.3098 34.3922C23.2991 26.8786 36.2786 19.3478 49.2483 11.8C49.4672 11.6422 49.7295 11.5565 49.9989 11.5547C50.2684 11.5529 50.5317 11.6352 50.7527 11.7901C63.7518 19.3522 76.7595 26.8994 89.7757 34.4318C90.006 34.5377 90.1979 34.7129 90.3247 34.9331C90.4516 35.1534 90.5072 35.4078 90.4839 35.6613C90.4533 40.9595 90.4549 46.2577 90.4887 51.5556C90.4937 52.337 90.2672 52.5285 89.507 52.5269C77.7572 52.5157 66.0075 52.5102 54.2577 52.5106C52.6915 52.5106 51.961 52.9966 51.9931 54.0135C52.0242 54.9948 52.738 55.4539 54.2389 55.454C68.1369 55.4729 82.0348 55.465 95.9327 55.4304C96.8836 55.428 97.2006 55.6636 97.0831 56.6092C97.0381 56.971 97.0803 57.3735 97.1217 57.7693C97.194 58.4587 97.264 59.1279 96.8678 59.5263C96.4562 59.9401 95.6975 59.8527 94.9456 59.7661C94.6336 59.7302 94.3228 59.6944 94.0385 59.6945ZM6.91807 32.9746C6.43579 33.2581 5.95554 33.5405 5.41275 33.5085C4.91226 33.5367 4.4161 33.4017 3.9982 33.1235C3.5803 32.8453 3.26306 32.4389 3.09377 31.9648C2.91696 31.5209 2.88436 31.0323 3.00064 30.5687C3.11692 30.105 3.37612 29.6903 3.74117 29.3836C4.01809 29.1567 4.31593 28.9568 4.63064 28.7867C19.1091 20.4064 33.5772 12.0081 48.0349 3.59193C49.3984 2.79821 50.6021 2.7928 51.9591 3.58237C66.4259 11.9833 80.8937 20.3823 95.3627 28.7793C95.6775 28.9495 95.9752 29.1498 96.2516 29.3777C96.6706 29.746 96.9456 30.2521 97.0275 30.8055C97.1094 31.3588 96.9928 31.9234 96.6986 32.3984C96.4044 32.8733 95.9517 33.2277 95.4214 33.3981C94.8911 33.5686 94.3178 33.544 93.8038 33.3289C93.1302 33.0038 92.4745 32.6426 91.8395 32.2466C78.3999 24.4754 64.9753 16.678 51.566 8.85435C50.4394 8.19706 49.577 8.1944 48.4416 8.85705C34.6561 16.8755 20.8654 24.8851 7.06957 32.8859C7.01967 32.9149 6.96987 32.9442 6.92009 32.9734L6.91952 32.9738L6.91885 32.9741L6.91807 32.9746ZM74.6344 70.5699V76.2563C74.6343 76.8329 74.6329 77.4096 74.6315 77.9862V77.9876C74.6277 79.5348 74.6239 81.082 74.6461 82.6289C74.6545 83.2175 74.4931 83.4512 73.8835 83.415C73.3648 83.3795 72.8438 83.4123 72.3336 83.5125C71.2416 83.7407 70.5746 84.6329 70.54 85.8819C70.5102 86.9596 70.5051 88.0396 70.543 89.1167C70.5628 89.6794 70.37 89.8377 69.8222 89.8316C67.4807 89.8053 65.1383 89.7939 62.7974 89.8369C62.1098 89.8495 61.9807 89.5745 62.0029 88.9792C62.0334 88.1633 62.0229 87.3454 62.0125 86.5283L62.0088 86.2344C61.9851 84.2717 61.1465 83.4275 59.2114 83.4028C59.0278 83.4005 58.8699 83.4026 58.7343 83.4045C58.3603 83.4096 58.1552 83.4125 58.0429 83.3118C57.9065 83.1895 57.907 82.9144 57.9081 82.3053L57.9081 82.3016V82.3014V82.3012C57.9083 82.2336 57.9084 82.1619 57.9083 82.0859C57.9075 80.909 57.9089 79.7321 57.9103 78.5553C57.9135 75.7451 57.9167 72.9349 57.8907 70.1249C57.8832 69.3133 58.025 68.985 58.9407 69.01C61.2842 69.0739 62.0051 68.2924 62.0111 65.9135C62.0117 65.6769 62.014 65.4402 62.0163 65.2036C62.0222 64.5903 62.028 63.977 62.0049 63.3648C61.9837 62.8038 62.2084 62.6336 62.746 62.6381C65.1203 62.6567 67.4946 62.657 69.8687 62.6389C70.3732 62.6351 70.5552 62.8063 70.5402 63.3175C70.5105 64.3297 70.5218 65.3436 70.5349 66.3565C70.5576 68.1135 71.4491 69.0107 73.1763 69.0351C74.6343 69.0556 74.6343 69.0556 74.6344 70.5699ZM42.0908 74.4647C42.0905 75.0496 42.0901 75.6345 42.0901 76.2194C42.09 76.8038 42.0875 77.3883 42.085 77.9727L42.085 77.9756C42.0786 79.4813 42.0721 80.9871 42.1061 82.492C42.1229 83.2376 41.88 83.499 41.1623 83.4103C40.8383 83.3788 40.5118 83.3847 40.1891 83.4279C38.9153 83.5673 38.0986 84.3691 38.0219 85.6596C37.9561 86.7667 37.9656 87.8809 37.9977 88.9903C38.0155 89.6035 37.8593 89.8473 37.1908 89.8359C34.8504 89.7961 32.5087 89.8042 30.168 89.8321C29.6075 89.8388 29.4361 89.6576 29.457 89.1076C29.489 88.2656 29.4794 87.4218 29.4697 86.5784L29.4697 86.578C29.4681 86.4412 29.4666 86.3043 29.4652 86.1675C29.4467 84.3468 28.5706 83.4464 26.7905 83.4032C25.3693 83.3686 25.3692 83.3686 25.3692 81.9327C25.3692 80.9051 25.3705 79.8775 25.3718 78.85C25.3756 75.9242 25.3793 72.9985 25.3523 70.073C25.3451 69.2994 25.4848 68.995 26.3448 69.0126C28.7416 69.0617 29.4655 68.2838 29.4671 65.859C29.4673 65.6099 29.4695 65.3608 29.4717 65.1116C29.4769 64.511 29.4821 63.9104 29.4593 63.3109C29.4396 62.7922 29.6406 62.6356 30.1372 62.6391C32.5109 62.6589 34.8845 62.6585 37.2579 62.6379C37.8012 62.6332 38.0101 62.8146 37.9939 63.3694C37.9644 64.3813 37.9689 65.3952 37.993 66.4074C38.0353 68.1874 38.8915 69.0109 40.6714 69.0365C40.9054 69.0398 41.1008 69.035 41.2639 69.031H41.264H41.2642H41.2643C41.6286 69.0221 41.832 69.0171 41.9454 69.1156C42.0887 69.24 42.0887 69.5294 42.0887 70.1842C42.0886 70.2629 42.0886 70.3469 42.0889 70.4365C42.0926 71.7792 42.0917 73.1219 42.0908 74.4647ZM12.4799 77.9615C12.4785 77.3756 12.477 76.7896 12.477 76.2037C12.4769 75.6099 12.4797 75.0161 12.4825 74.4222C12.4894 72.9253 12.4964 71.4285 12.4586 69.9328C12.4395 69.1754 12.6882 69.009 13.398 69.0193C16.1288 69.0579 18.8593 69.0581 21.5893 69.0198C22.2872 69.01 22.4582 69.2376 22.4538 69.9098C22.4237 74.1235 22.4242 78.337 22.4552 82.5504C22.4604 83.2599 22.2148 83.4221 21.5597 83.415C18.7964 83.3824 16.0334 83.3828 13.2707 83.4162C12.6123 83.4242 12.4555 83.1918 12.4648 82.573C12.4878 81.0361 12.4839 79.4988 12.4799 77.9615ZM87.5208 74.4624C87.5219 75.0403 87.523 75.6181 87.523 76.196C87.523 76.7821 87.5217 77.3683 87.5203 77.9545C87.5168 79.491 87.5132 81.0275 87.5344 82.5637C87.5427 83.1685 87.4109 83.4252 86.7389 83.4168C83.9438 83.3824 81.149 83.3822 78.3545 83.4163C77.6802 83.4245 77.5507 83.1624 77.5536 82.5561C77.5729 78.3109 77.573 74.0657 77.554 69.8205C77.5514 69.2462 77.688 69.0162 78.3095 69.0227C81.137 69.054 83.9643 69.0537 86.7914 69.0218C87.4283 69.0147 87.5391 69.27 87.5327 69.8283C87.5151 71.3728 87.518 72.9176 87.5208 74.4624ZM54.9736 74.4867C54.9754 75.0814 54.9772 75.6761 54.9772 76.2707C54.9773 76.8524 54.9756 77.4341 54.9738 78.0158V78.0164C54.9694 79.493 54.9649 80.9696 54.9903 82.4457C55.0019 83.1257 54.8805 83.435 54.0956 83.421C51.365 83.3724 48.6329 83.3832 45.9019 83.4158C45.234 83.4238 45.0025 83.2424 45.0072 82.5426C45.0342 78.3277 45.0345 74.1129 45.0082 69.8982C45.0038 69.206 45.2332 69.0138 45.9032 69.0218C48.6348 69.0548 51.3661 69.0547 54.097 69.0217C54.769 69.0136 55.0026 69.2084 54.9906 69.8997C54.9641 71.4283 54.9688 72.9575 54.9736 74.4867ZM24.1092 89.8207H17.3817C16.6592 89.8206 15.9366 89.8194 15.2141 89.8182H15.2123C13.2054 89.8148 11.1985 89.8114 9.19183 89.8336C8.57171 89.8405 8.36643 89.6839 8.36188 89.0271L8.36138 88.9558C8.35222 87.6496 8.34764 86.9972 8.67153 86.6714C8.99467 86.3464 9.64477 86.3464 10.9434 86.3464H10.9439C12.1485 86.3464 13.3532 86.3474 14.5578 86.3483C18.2282 86.3511 21.8986 86.354 25.5688 86.3306C26.3249 86.3258 26.5667 86.5214 26.5571 87.3095L26.5558 87.4093C26.5267 89.8203 26.5267 89.8207 24.1092 89.8207ZM75.9936 86.3464H82.6247C83.3442 86.3465 84.0636 86.3477 84.783 86.349C86.7941 86.3524 88.8052 86.3559 90.816 86.3342C91.4542 86.3273 91.6356 86.5253 91.6413 87.1682L91.6419 87.2346C91.6533 88.5234 91.6591 89.1699 91.3387 89.4942C91.0162 89.8207 90.3633 89.8207 89.0531 89.8207H89.0526C87.8506 89.8207 86.6486 89.8197 85.4467 89.8188H85.4435C81.7707 89.8159 78.0978 89.813 74.4252 89.837C73.6771 89.8419 73.4304 89.6666 73.4416 88.8738L73.443 88.7738C73.4768 86.3469 73.4768 86.3464 75.9936 86.3464ZM56.707 89.8207H49.9749C49.2396 89.8206 48.5042 89.819 47.7688 89.8175C45.7722 89.8131 43.7757 89.8088 41.7796 89.8357C41.0951 89.8449 40.9072 89.6362 40.9035 88.9569L40.9032 88.8875C40.8963 87.6263 40.8929 86.9911 41.2088 86.6711C41.5294 86.3464 42.179 86.3464 43.4878 86.3464H43.4881C44.7286 86.3464 45.9692 86.348 47.2097 86.3495C50.815 86.3541 54.4204 86.3586 58.0253 86.3249C58.9148 86.3166 59.1132 86.6018 59.0994 87.4389L59.0978 87.5396C59.0608 89.8201 59.0608 89.8207 56.707 89.8207ZM24.0679 66.0915H17.4334C16.6999 66.0914 15.9665 66.0899 15.233 66.0883C13.2345 66.084 11.236 66.0797 9.23792 66.1067C8.56213 66.1158 8.35968 65.936 8.36115 65.2402L8.36131 65.1623C8.36635 62.6451 8.36635 62.6451 10.932 62.6451C12.1386 62.6451 13.3453 62.646 14.5519 62.6469C18.2236 62.6496 21.8954 62.6524 25.5669 62.6301C26.3208 62.6255 26.5661 62.8255 26.5568 63.6123L26.5557 63.7089C26.528 66.0911 26.528 66.0915 24.0679 66.0915ZM89.2198 66.0915H82.4865C81.7715 66.0914 81.0565 66.0903 80.3415 66.0891L80.3268 66.0891C78.3143 66.0859 76.3018 66.0826 74.2896 66.1036C73.674 66.1101 73.451 65.9628 73.445 65.2955L73.4444 65.2242V65.2241C73.4329 63.9467 73.4271 63.302 73.7466 62.9766C74.0721 62.6451 74.7354 62.6451 76.0745 62.6451H76.0751C77.294 62.6451 78.5128 62.6463 79.7317 62.6475C83.3596 62.6511 86.9874 62.6547 90.615 62.6266C91.4232 62.6203 91.6593 62.8351 91.6453 63.6555L91.6435 63.7602C91.604 66.0909 91.604 66.0915 89.2198 66.0915ZM56.6218 66.0915H49.8972C49.1772 66.0914 48.4572 66.0901 47.7372 66.0888H47.7355C45.7597 66.0851 43.7838 66.0815 41.8083 66.1046C41.1593 66.1122 40.907 65.9696 40.9019 65.2531L40.9013 65.1725C40.8923 63.9194 40.8877 63.2876 41.2013 62.969C41.5203 62.6451 42.1682 62.6451 43.4752 62.6451H43.4757C44.6748 62.6451 45.8739 62.646 47.0731 62.6468C50.7469 62.6494 54.4206 62.652 58.0943 62.6306C58.8332 62.6263 59.1057 62.8001 59.1001 63.5991L59.0995 63.6983C59.0831 66.0912 59.0831 66.0915 56.6218 66.0915ZM24.1135 39.2989L24.1135 39.3015C24.1148 39.8198 24.116 40.3381 24.1162 40.8564C24.1163 41.4114 24.1146 41.9664 24.1129 42.5214C24.1091 43.7971 24.1052 45.0729 24.1233 46.3483C24.1408 47.5825 24.6338 48.0568 25.865 48.0717C27.0684 48.0862 28.2725 48.0759 29.4759 48.0559C31.3871 48.0241 32.7806 47.1161 33.57 45.3927C34.3656 43.6556 34.0771 41.9978 32.8505 40.552C32.5094 40.15 32.4294 39.8776 32.6288 39.3687C33.7142 36.598 31.857 33.8107 28.887 33.7159C28.0188 33.6881 27.149 33.6983 26.2798 33.7085L25.9591 33.7121C24.6422 33.7267 24.1343 34.2246 24.1203 35.5606C24.1073 36.8066 24.1104 38.0528 24.1135 39.2989ZM27.1485 45.0007C27.0354 44.8787 27.0387 44.6489 27.0447 44.2234C27.0475 44.0323 27.0507 43.8017 27.0443 43.5237C27.0443 41.9273 27.0443 41.926 28.6332 41.9289C28.9904 41.9117 29.3483 41.9216 29.704 41.9585C30.0962 42.0113 30.4535 42.2129 30.7025 42.5219C30.9516 42.8309 31.0735 43.2239 31.0433 43.6204C30.9573 44.4673 30.4884 44.9978 29.6185 45.0942C29.3811 45.1205 29.1406 45.1198 28.9003 45.119C28.8148 45.1188 28.7294 45.1185 28.6441 45.1195C28.4853 45.1213 28.3421 45.124 28.2131 45.1264H28.2129H28.2127C27.5747 45.1385 27.2813 45.144 27.1485 45.0007ZM28.1801 38.9835L28.1336 38.9838C28.0871 38.984 28.0417 38.9698 27.9963 38.9599C27.9057 38.9402 27.7936 38.9591 27.6793 38.9785C27.4135 39.0234 27.1351 39.0705 27.0832 38.6402C27.0701 38.5309 27.0514 38.4122 27.032 38.2892C26.9398 37.7033 26.8321 37.019 27.2304 36.7855C27.8367 36.4301 28.7602 36.4793 29.4817 36.8669C29.7062 36.976 29.8818 37.1656 29.9739 37.3984C30.066 37.6312 30.068 37.8903 29.9794 38.1245C29.7167 38.9603 29.038 39.0158 28.3213 38.9844C28.2799 38.9826 28.2384 38.983 28.1804 38.9835H28.1803H28.1802H28.1801ZM59.0544 41.4082C59.1607 41.5511 59.3891 41.476 59.3891 41.2978L59.3891 40.2226V40.2135C59.3889 38.7381 59.3888 37.372 59.3898 36.0059C59.3696 35.6795 59.377 35.3519 59.4119 35.0268C59.553 34.2122 60.0644 33.7169 60.8833 33.7361C61.6942 33.7552 62.274 34.2437 62.2906 35.0796C62.365 38.8073 62.4076 42.5356 62.4183 46.2644C62.4426 46.6302 62.3385 46.9931 62.1242 47.2897C61.9098 47.5864 61.5987 47.7982 61.245 47.8882C60.4319 48.1302 59.8446 47.7602 59.4043 47.1257C58.2573 45.4727 57.1191 43.8134 55.9798 42.1525L55.9793 42.1518C55.6694 41.7 55.3594 41.248 55.0491 40.796C54.8415 40.4937 54.4149 40.4458 54.4642 40.8092C54.4718 40.8651 54.4792 40.9195 54.4788 40.9702C54.4711 41.8812 54.4717 42.7922 54.4722 43.7032C54.4727 44.5585 54.4732 45.4137 54.4669 46.2689C54.4585 47.4222 53.9097 48.0687 52.9864 48.0644C52.0585 48.06 51.5455 47.4334 51.5434 46.2546C51.5408 44.7917 51.5413 43.3287 51.5419 41.8658C51.5427 39.7635 51.5436 37.6612 51.5349 35.559C51.5314 34.7247 51.7446 34.0644 52.6177 33.8137C53.4517 33.5741 53.9663 34.0328 54.4017 34.6701C55.8011 36.7181 57.2056 38.7627 58.6151 40.8038C58.7426 40.9889 58.8767 41.1693 59.0535 41.4071L59.054 41.4077L59.0542 41.4079L59.0544 41.4082ZM44.1498 34.853C44.0067 34.4738 43.783 34.2006 43.4934 34.0141C42.9458 33.6615 42.1992 33.6447 41.6389 33.9767C41.3483 34.1488 41.1181 34.4099 40.9752 34.7838C39.5252 38.5564 38.0952 42.3366 36.6854 46.1243C36.6147 46.2992 36.5796 46.4865 36.5822 46.6751C36.5847 46.8638 36.6249 47.0501 36.7003 47.2229C36.7757 47.3957 36.8848 47.5516 37.0212 47.6813C37.1576 47.8111 37.3184 47.912 37.4943 47.9783C38.232 48.2614 39.1902 47.9854 39.3354 47.187C39.6932 45.2193 40.9673 45.0787 42.523 45.277C42.6522 45.2955 42.7834 45.2953 42.9125 45.2764C44.3338 45.0391 45.2816 45.4062 45.6331 47.0078C45.8424 47.9615 46.7425 48.2903 47.5549 47.9777C48.2919 47.694 48.664 46.8831 48.3451 46.0217C47.1855 42.8897 46.0053 39.7655 44.8251 36.6412L44.8251 36.641C44.5999 36.0451 44.3748 35.4491 44.1498 34.853ZM41.8856 42.3346C41.5747 42.3339 41.3593 42.0235 41.4679 41.7323L42.1557 39.8872C42.2864 39.5365 42.7835 39.5353 42.9166 39.8852C43.2047 40.6426 43.4617 41.318 43.7002 42C43.8166 42.3327 43.5613 42.3315 43.356 42.3305H43.3555C43.3444 42.3305 43.3334 42.3304 43.3226 42.3304C43.3133 42.3304 43.3042 42.3304 43.2952 42.3306C42.8411 42.3366 42.3869 42.3356 41.8861 42.3346H41.8858H41.8856ZM70.8875 44.9267C70.3748 44.431 69.5867 44.6919 69.6024 45.405C69.6036 45.4597 69.605 45.5141 69.6064 45.5684V45.5686C69.613 45.8309 69.6194 46.0889 69.6077 46.3456C69.5563 47.4658 69.0705 48.0545 68.1637 48.0622C67.2613 48.0698 66.6922 47.4695 66.6863 46.374C66.6667 42.6821 66.6666 38.9902 66.6861 35.2981C66.6916 34.2207 67.2799 33.5914 68.1608 33.5962C69.0413 33.601 69.5738 34.2262 69.6019 35.3183C69.6129 35.7488 69.6106 36.1796 69.6078 36.6957V36.6962L69.6078 36.699C69.606 37.0253 69.9923 37.1967 70.2338 36.9773C70.3021 36.9153 70.3695 36.854 70.4361 36.7935L70.4368 36.7928C71.0329 36.2514 71.5675 35.7656 72.1007 35.2782C72.2463 35.1451 72.389 35.0085 72.5316 34.8719L72.5317 34.8718L72.5318 34.8718C72.7896 34.6249 73.0474 34.3782 73.3222 34.1521C74.0512 33.5521 74.8473 33.5876 75.4153 34.2089C75.965 34.8101 75.9479 35.6682 75.2837 36.3074C73.969 37.5726 72.6383 38.8234 71.266 40.0247C70.7393 40.4858 70.7402 40.7341 71.2536 41.2061C72.4651 42.3198 73.641 43.473 74.8167 44.6259L74.8169 44.6261C75.0374 44.8424 75.2579 45.0586 75.4786 45.2746C76.3266 46.1044 76.4279 47.0176 75.7721 47.6632C75.1483 48.2774 74.2786 48.1865 73.4554 47.3999C72.6062 46.5885 71.7618 45.772 70.8916 44.9306L70.8875 44.9267ZM53.628 17.9565C52.6175 17.2796 51.4299 16.919 50.2154 16.9204C48.5899 16.9261 47.0327 17.5779 45.8838 18.7334C44.735 19.8889 44.0878 21.4542 44.0837 23.0875C44.0834 24.3079 44.4434 25.5009 45.1181 26.5156C45.7928 27.5304 46.7519 28.3212 47.874 28.7881C48.9962 29.2549 50.2309 29.3769 51.422 29.1384C52.6131 28.9 53.7071 28.3119 54.5655 27.4485C55.4239 26.5852 56.0081 25.4854 56.2443 24.2883C56.4804 23.0912 56.3579 21.8507 55.8922 20.7236C55.4265 19.5965 54.6385 18.6335 53.628 17.9565ZM47.9698 20.794C48.5745 20.1944 49.3913 19.8602 50.2409 19.8649C50.6636 19.8659 51.082 19.9509 51.4719 20.115C51.8619 20.279 52.2157 20.5189 52.5131 20.8208C52.8105 21.1226 53.0455 21.4806 53.2048 21.8741C53.3641 22.2675 53.4444 22.6888 53.4411 23.1135C53.4378 23.5383 53.3511 23.9582 53.1857 24.3491C53.0204 24.7401 52.7799 25.0943 52.4779 25.3916C52.1759 25.6888 51.8184 25.9231 51.426 26.0811C51.0336 26.239 50.6139 26.3175 50.1912 26.312C49.3417 26.3034 48.5302 25.9566 47.9347 25.3477C47.3393 24.7387 47.0086 23.9172 47.0152 23.0636C47.0218 22.2099 47.3651 21.3937 47.9698 20.794Z" fill="#002B4F"/>
</svg>
