<svg width="100" height="90" viewBox="0 0 100 90" fill="none" xmlns="http://www.w3.org/2000/svg">
<path d="M100.002 61.3993C99.5092 63.4765 98.047 64.8466 96.5022 66.2014C90.9145 71.1016 85.2966 75.9718 79.8241 80.9946C76.6392 83.9178 72.9934 85.4604 68.7085 86.0137C59.8117 87.1626 50.9349 88.4664 42.0614 89.7817C39.229 90.2015 36.567 90.0566 33.8562 88.9881C27.9163 86.6467 21.8945 84.5067 15.9177 82.2549C15.2503 82.0035 15.0099 82.0058 14.8979 82.8015C14.542 85.3303 12.7177 86.9954 10.1217 87.1833C8.33623 87.3164 6.54292 87.313 4.75798 87.1729C3.56167 87.0894 2.43424 86.5911 1.57618 85.7667C0.718126 84.9424 0.185071 83.8453 0.0718289 82.6706C-0.00865792 81.681 -0.0215216 80.6871 0.0333292 79.6958C0.0616348 78.8968 0.498568 78.372 1.35222 78.3009C2.15903 78.2337 2.75001 78.723 2.84112 79.6162C2.91879 80.3775 2.8625 81.1511 2.89365 81.9182C2.95845 83.514 3.83617 84.3915 5.47004 84.4365C6.83594 84.4741 8.20477 84.4763 9.5705 84.4355C11.1919 84.3871 12.1264 83.478 12.1284 81.8974C12.1425 70.946 12.1418 59.9946 12.1263 49.0431C12.1239 47.4906 11.2044 46.6195 9.6187 46.5771C8.35028 46.5432 7.08018 46.5633 5.81089 46.5694C3.74046 46.5795 2.89704 47.3893 2.89057 49.4092C2.87951 52.8675 2.88739 56.3258 2.88737 59.7842C2.88733 63.2105 2.88581 66.6368 2.88283 70.0632C2.88786 70.446 2.85224 70.8284 2.77654 71.204C2.72503 71.5094 2.55889 71.7848 2.31096 71.9755C2.06303 72.1662 1.75136 72.2585 1.43762 72.234C0.6958 72.2329 0.220498 71.8204 0.0630213 71.1071C0.0172054 70.8226 0.00200662 70.5341 0.0176696 70.2465C0.0155499 63.2977 0.0155052 56.349 0.0175353 49.4003C0.0201865 45.8413 2.16339 43.7447 5.7934 43.7333C6.99763 43.7295 8.20195 43.7244 9.40612 43.7344C12.6453 43.7615 14.7679 45.6443 14.9772 48.812C15.0314 49.6317 15.3323 49.7312 16.0164 49.7065C17.7089 49.6563 19.4029 49.7351 21.083 49.9422C21.5003 49.9909 21.7709 50.0002 21.7695 49.4676C21.7594 45.6324 21.7641 41.7972 21.7641 37.6835C20.7301 38.6344 19.8913 39.4085 19.0494 40.1793C18.4062 40.7681 17.7875 41.3871 17.1083 41.9327C14.9482 43.6678 11.9993 43.4748 10.1505 41.5077C8.33671 39.5778 8.28725 36.6387 10.2342 34.7319C13.0933 31.9317 16.0784 29.2561 19.0039 26.5213C19.9928 25.5969 21.339 24.813 21.8374 23.6748C22.3357 22.537 21.9924 21.0362 21.9923 19.6945C21.992 16.7165 21.9679 13.7385 21.9684 10.7605C21.9687 8.6836 22.8112 7.85599 24.9195 7.84523C27.1326 7.83393 29.3459 7.83516 31.5591 7.83346C33.9302 7.83164 34.7013 8.5886 34.7275 10.9331C34.7303 11.1841 34.7514 11.4348 34.7648 11.7008C35.183 11.702 35.3382 11.3769 35.5577 11.1744C38.9287 8.06389 42.2944 4.9478 45.6547 1.82609C48.2743 -0.601946 50.9747 -0.606352 53.5833 1.79896C60.2087 7.90822 66.8364 14.015 73.4665 20.1194C73.5615 20.2069 73.6596 20.2914 73.7523 20.3812C74.5613 21.1648 74.6706 22.03 74.0394 22.6445C73.4411 23.2271 72.6014 23.1568 71.7954 22.4157C66.802 17.8243 61.812 13.2293 56.8254 8.63076C55.0672 7.01133 53.314 5.3867 51.5491 3.77438C50.1566 2.50228 49.1008 2.50084 47.7285 3.77207C36.0698 14.5715 24.4125 25.3723 12.7566 36.1746C12.1478 36.7385 11.6561 37.3454 11.6985 38.2384C11.7113 38.5992 11.8179 38.9507 12.008 39.2595C12.1981 39.5684 12.4654 39.8241 12.7844 40.0025C13.1034 40.1809 13.4636 40.2759 13.8305 40.2785C14.1975 40.2811 14.559 40.1912 14.8806 40.0174C15.3221 39.7472 15.7295 39.4263 16.094 39.0614C26.7341 29.2063 37.3709 19.3477 48.0045 9.48564C49.4299 8.16395 49.8374 8.15913 51.2597 9.4696C61.9972 19.3629 72.734 29.257 83.4699 39.152C84.0768 39.7116 84.7029 40.2358 85.5828 40.1871C85.9767 40.1793 86.3604 40.0631 86.6906 39.8516C87.0207 39.6401 87.284 39.3418 87.4505 38.9905C87.6385 38.65 87.7215 38.263 87.6893 37.8767C87.6572 37.4905 87.5112 37.1219 87.2694 36.8161C87.0145 36.4851 86.7285 36.1784 86.4152 35.9002C83.9963 33.6634 81.574 31.43 79.1483 29.2001C78.8798 28.9684 78.637 28.7093 78.424 28.4272C78.2321 28.1813 78.1401 27.8741 78.1658 27.5652C78.1915 27.2563 78.3331 26.9678 78.563 26.756C78.7621 26.5168 79.0427 26.3569 79.3527 26.3059C79.6627 26.255 79.9809 26.3165 80.2482 26.4791C80.4469 26.5882 80.6305 26.722 80.7945 26.8772C83.5035 29.3715 86.2475 31.8306 88.9031 34.379C91.5435 36.9127 90.9058 40.9705 87.7007 42.5175C85.8162 43.427 83.6237 43.0816 81.9164 41.5648C80.7571 40.535 79.6377 39.4618 78.4921 38.4169C78.2602 38.2054 78.0785 37.9215 77.7342 37.8335C77.4739 38.0712 77.5957 38.3772 77.596 38.6446C77.6045 46.65 77.62 54.6555 77.6424 62.6609C77.6432 62.9407 77.5067 63.3279 77.7508 63.478C78.0762 63.6782 78.3205 63.2909 78.5693 63.128C82.4136 60.6095 86.2371 58.0601 90.0905 55.5554C93.5384 53.3142 97.6752 54.3119 99.3801 57.7725C99.6193 58.3292 99.8269 58.8986 100.002 59.478V61.3993ZM15.0209 65.7469C15.0209 69.8447 15.0388 73.9426 15.0036 78.0401C14.9977 78.7352 15.2312 79.0325 15.883 79.2726C22.3923 81.6707 28.8999 84.0741 35.38 86.5469C37.1415 87.2153 39.0528 87.4077 40.9155 87.1041C50.3059 85.7444 59.6982 84.3946 69.0995 83.1103C72.2132 82.7376 75.1286 81.4099 77.4322 79.3155C83.4289 73.9087 89.5114 68.594 95.5572 63.2399C95.8569 62.9939 96.1343 62.7226 96.3863 62.4293C96.8031 61.9506 97.0627 61.3589 97.1309 60.7321C97.1992 60.1054 97.0729 59.4729 96.7687 58.9182C96.1666 57.7255 95.1296 57.1532 93.7645 57.1476C92.8647 57.144 92.1526 57.5704 91.4441 58.0372C85.1221 62.2035 78.7993 66.3683 72.4755 70.5317C72.0122 70.837 71.5574 71.1432 70.9621 71.1085C68.7865 70.9814 66.6071 70.8996 64.4357 70.7219C58.8287 70.2632 53.2255 69.7602 47.6203 69.2791C42.9871 68.8814 38.3529 68.4957 33.7203 68.0911C32.6519 67.9978 32.01 67.3692 32.0758 66.5563C32.1447 65.7059 32.8487 65.1816 33.9138 65.2721C39.3573 65.7344 44.7991 66.2176 50.2419 66.688C54.3889 67.0464 58.5377 67.3847 62.6828 67.762C63.3869 67.826 63.5895 67.6531 63.4874 66.9463C63.1112 64.3425 60.9626 62.1247 58.2943 61.7921C54.3592 61.3016 50.4209 60.8183 46.4723 60.4541C41.1805 59.966 36.053 58.9783 31.4023 56.2834C26.6752 53.544 21.5456 52.4178 16.0905 52.514C15.2723 52.5284 14.9843 52.6624 14.9965 53.5499C15.0521 57.6149 15.0209 61.6811 15.0209 65.7469ZM74.7993 50.3172H74.7672C74.7672 45.516 74.7551 40.7148 74.7813 35.9137C74.7987 35.6169 74.7463 35.3201 74.6282 35.0464C74.5102 34.7727 74.3296 34.5294 74.1005 34.3354C66.1569 27.0415 58.2279 19.7321 50.3137 12.4072C49.7957 11.9275 49.5285 11.9062 49.0008 12.3974C41.0611 19.7888 33.1062 27.1644 25.1359 34.5241C24.9637 34.6637 24.8263 34.8401 24.7341 35.04C24.6419 35.2399 24.5975 35.4578 24.6041 35.6772C24.6283 40.3823 24.6319 45.0874 24.6151 49.7926C24.6129 50.3629 24.7638 50.6311 25.3562 50.7779C27.8744 51.4243 30.2906 52.4071 32.5375 53.6991C34.7338 54.9481 37.0852 55.9121 39.5331 56.5671C40.1299 56.7245 40.34 56.6159 40.3228 55.9672C40.2804 54.3678 40.3048 52.7667 40.3027 51.1663C40.2983 47.8375 40.28 44.5086 40.2957 41.1799C40.3039 39.4259 41.2759 38.3449 42.8986 38.3341C47.4205 38.3038 51.9426 38.3132 56.4647 38.3126C57.6432 38.3124 58.4115 38.9405 58.8873 39.9432C59.1122 40.4169 59.057 40.9473 59.0584 41.458C59.0737 47.0273 59.0879 52.5967 59.101 58.1661C59.1022 58.5976 58.9951 59.0439 59.6302 59.2274C63.7922 60.4301 65.9558 63.2567 66.3995 67.4299C66.4518 67.9215 66.6436 68.0607 67.1161 68.1062C70.5209 68.4344 70.52 68.4432 73.3306 66.5861C73.5608 66.4083 73.8051 66.2489 74.0611 66.1094C74.6858 65.8282 74.8167 65.3644 74.8133 64.7207C74.7877 59.9197 74.7994 55.1184 74.7994 50.3172H74.7993ZM56.2508 49.8664H56.232C56.232 47.244 56.21 44.6213 56.247 41.9993C56.2567 41.3119 56.1066 41.0517 55.342 41.0608C51.5718 41.1054 47.8008 41.1055 44.0303 41.0837C43.3606 41.0799 43.1452 41.2564 43.1497 41.9378C43.1817 46.7667 43.1854 51.5958 43.1609 56.4249C43.1575 57.0869 43.3768 57.2898 44.0251 57.358C47.8359 57.7592 51.6435 58.1893 55.4478 58.6483C56.1212 58.7302 56.2706 58.557 56.2635 57.9255C56.2335 55.2394 56.2508 52.5528 56.2508 49.8664L56.2508 49.8664ZM24.8248 21.1244C27.2244 18.9055 29.416 16.8759 31.6129 14.8519C31.7033 14.7618 31.772 14.6528 31.8139 14.533C31.8558 14.4132 31.8698 14.2858 31.8548 14.1599C31.8486 13.2019 31.8357 12.2434 31.8574 11.2858C31.8671 10.8574 31.766 10.6528 31.2714 10.6587C29.324 10.682 27.3765 10.6833 25.4286 10.6627C24.9648 10.6584 24.8145 10.8107 24.8167 11.2668C24.8321 14.4563 24.8248 17.6459 24.8248 21.1244Z" fill="#002B4F"/>
</svg>
