<svg width="100" height="100" viewBox="0 0 100 100" fill="none" xmlns="http://www.w3.org/2000/svg">
<path fill-rule="evenodd" clip-rule="evenodd" d="M22.6713 100C22.2925 100 21.9145 99.818 21.5426 99.7457C21.4512 99.7279 21.3601 99.7102 21.2755 99.6781C20.2569 99.3151 19.3735 98.6496 18.7436 97.7707C18.1136 96.8918 17.7671 95.8415 17.7504 94.7603C17.7214 93.5567 17.7209 92.3524 17.7489 91.1477C17.7612 90.6271 17.6246 90.3606 17.0927 90.147C13.9903 88.9012 12.3083 86.3776 12.307 83.0271C12.3017 69.4214 12.3013 55.8157 12.3057 42.21C12.2865 41.9503 12.2969 41.6892 12.3366 41.4318C12.513 40.6836 12.9798 40.2263 13.7763 40.2299C14.5737 40.2335 15.0405 40.6968 15.2023 41.4468C15.2465 41.7693 15.2569 42.0956 15.2334 42.4203C15.2337 44.3428 15.2349 46.2654 15.2362 48.188C15.2406 54.9887 15.245 61.7894 15.2055 68.5899C15.1994 69.6295 15.5172 69.8036 16.4513 69.7834C18.0887 69.7481 19.7269 69.7531 21.3652 69.7582C22.4938 69.7617 23.6225 69.7652 24.7509 69.7555C26.3335 69.7419 27.3919 70.4027 27.9985 71.8944C28.5241 73.187 29.0807 74.4669 29.6373 75.7468L29.6378 75.7479C30.0141 76.6132 30.3904 77.4784 30.7571 78.3477C31.4752 80.0498 30.6627 81.2447 28.7937 81.2477L28.0665 81.2489C24.0774 81.2556 20.0883 81.2623 16.0995 81.2354C15.4403 81.231 15.153 81.3669 15.2224 82.0816C15.2506 82.3722 15.2517 82.6642 15.2528 82.9566C15.2547 83.4739 15.2567 83.9919 15.4088 84.5039C15.6642 85.3849 16.1874 86.1647 16.9059 86.7349C17.6245 87.3051 18.5027 87.6375 19.4187 87.686C19.6658 87.6986 19.9136 87.6972 20.1614 87.6958C20.2164 87.6955 20.2713 87.6952 20.3262 87.6951L20.395 87.695C25.3018 87.6951 30.2086 87.693 35.1154 87.6909C49.9336 87.6847 64.7519 87.6784 79.5699 87.7315C82.6169 87.7424 85.2065 86.0627 84.7765 81.7217C84.7223 81.1742 84.4218 81.2092 84.1345 81.2427C84.0656 81.2507 83.9975 81.2586 83.9337 81.2584C80.6936 81.2484 77.4534 81.249 74.2132 81.2495H74.2062C73.3149 81.2497 72.4237 81.2498 71.5324 81.2498C71.4582 81.2498 71.3839 81.2509 71.3095 81.2521C71.123 81.255 70.9365 81.2579 70.7515 81.2425C69.4379 81.1332 68.6138 79.9668 69.1073 78.7468C70.1183 76.2473 71.181 73.7689 72.2953 71.3117C72.8212 70.1553 73.8847 69.7573 75.1193 69.7602C76.0969 69.7625 77.0745 69.7606 78.0521 69.7587C79.9715 69.7549 81.8909 69.7511 83.8098 69.7793C84.5656 69.7904 84.7845 69.5969 84.7835 68.8174C84.7602 51.143 84.7532 33.4686 84.7626 15.7942C84.7616 12.9871 82.9163 11.1366 80.1161 11.1359C60.033 11.1303 39.95 11.1304 19.8669 11.1361C17.0715 11.1369 15.2409 12.9924 15.237 15.8097C15.2287 21.8964 15.2276 27.9832 15.2339 34.0699C15.2486 34.3625 15.2433 34.6558 15.2182 34.9477C15.1906 35.3173 15.0227 35.6624 14.7489 35.9122C14.4751 36.162 14.116 36.2975 13.7455 36.2911C13.3749 36.2846 13.0208 36.1367 12.7558 35.8775C12.4908 35.6184 12.335 35.2676 12.3204 34.8973C12.2872 34.3895 12.2936 33.8791 12.2999 33.3688V33.3687V33.3687V33.3687V33.3686V33.3686V33.3686C12.3025 33.1622 12.305 32.9559 12.305 32.7497C12.3048 31.9992 12.3038 31.2487 12.3027 30.4982V30.4979C12.2996 28.2214 12.2965 25.9449 12.3171 23.6685C12.3227 23.0583 12.1948 22.7828 11.5225 22.8397C11.2199 22.8653 10.8844 22.8411 10.5531 22.8171H10.5531H10.553H10.553H10.553H10.553C9.93374 22.7724 9.32867 22.7287 8.97805 23.013C8.5724 23.3419 8.65342 24.0326 8.73349 24.7152C8.76624 24.9944 8.79883 25.2723 8.7979 25.5235C8.78585 28.7683 8.78693 32.0131 8.78801 35.2579C8.78856 36.928 8.78912 38.5982 8.78789 40.2684C8.78627 42.4563 7.68153 43.5478 5.47843 43.5544C5.27697 43.555 5.07509 43.5505 4.87323 43.546L4.87282 43.546H4.87278H4.87273H4.87269H4.87265H4.87261C4.45502 43.5366 4.0375 43.5273 3.62384 43.5632C2.64217 43.6482 1.82892 43.4639 1.18528 42.9967C0.112317 42.2178 0 40.7234 0 39.3976V24.0609C0 22.7467 0.109572 21.2603 1.18394 20.5036C1.82749 20.0502 2.64078 19.8705 3.61865 19.9009C5.04343 19.9451 6.4697 19.9378 7.89608 19.9305H7.89627C9.07123 19.9245 10.2463 19.9185 11.4206 19.9413C12.1735 19.9559 12.3565 19.7263 12.3207 19.0133C12.269 17.984 12.2858 16.9506 12.3026 15.9185C12.3049 15.7799 12.3071 15.6413 12.3092 15.5028C12.3118 13.7964 12.9134 12.145 14.0091 10.8368C15.1049 9.52866 16.6252 8.64678 18.3047 8.34505C19.3896 8.13888 20.4845 8.16655 21.5792 8.19422H21.5792H21.5792H21.5793H21.5793H21.5794H21.5794C22.0774 8.20681 22.5754 8.21939 23.0724 8.20996L23.1418 8.20865C24.6996 8.17941 24.711 8.1792 24.6965 6.5547C24.6839 5.14592 24.7356 3.76804 25.5257 2.51454C26.0619 1.6638 26.7734 1.07879 27.5873 0.640561C28.5471 0.123829 29.6576 0 30.7476 0H70.4228C70.7354 0 71.0404 0.0828901 71.3333 0.191951C73.7129 0.931349 75.1194 2.69772 75.2749 5.19074C75.325 5.90443 75.3295 6.62059 75.2883 7.33486C75.2444 8.00171 75.4486 8.24202 76.1487 8.21891C77.6425 8.16962 79.1401 8.17568 80.6345 8.21751C82.2729 8.27207 83.8448 8.87813 85.0957 9.93751C86.3466 10.9969 87.2033 12.4475 87.5269 14.0545C87.7698 15.2591 87.7346 16.4746 87.6995 17.6888C87.6867 18.1312 87.6739 18.5734 87.6746 19.0148C87.6756 19.7244 87.8284 19.9557 88.5801 19.9412C89.7511 19.9186 90.9229 19.9246 92.0945 19.9307C93.5242 19.938 94.9538 19.9454 96.3819 19.9007C97.356 19.8702 98.1656 20.0495 98.8074 20.4989C99.8886 21.2562 100 22.75 100 24.0701V39.3953C100 40.7226 99.8873 42.2187 98.813 42.9982C98.1701 43.4646 97.3581 43.6489 96.3777 43.5627C95.9824 43.528 95.5833 43.5371 95.1841 43.5462C94.9963 43.5505 94.8084 43.5548 94.621 43.5545C92.2827 43.551 91.2133 42.4945 91.2119 40.1721C91.2088 35.1926 91.2085 30.2131 91.2109 25.2336C91.2109 22.9099 91.2087 22.9098 89.0437 22.8296L88.8718 22.8232C87.8506 22.7846 87.6721 23.1039 87.6735 24.0551C87.7025 43.6801 87.7092 63.3051 87.6938 82.9301C87.6933 86.3721 86.0446 88.8838 82.9068 90.1465C82.3747 90.3606 82.2406 90.6287 82.2518 91.1483C82.2783 92.3844 82.279 93.6222 82.2445 94.858C82.1959 96.6022 81.3886 97.9535 80.0166 99.0008C79.6149 99.3075 79.1566 99.4885 78.6985 99.6694C78.1865 99.8716 77.643 100 77.0925 100H66.3917C66.1467 100 65.9116 99.916 65.6863 99.8195C63.0657 98.9748 61.7085 97.1328 61.6864 94.3713L61.6844 94.1401L61.6819 93.876C61.6737 93.0321 61.6656 92.1879 61.6942 91.3451C61.7125 90.8044 61.5506 90.6131 60.9842 90.6143C53.662 90.6308 46.3397 90.6308 39.0173 90.6144C38.452 90.6131 38.2924 90.803 38.3061 91.3443C38.3359 92.515 38.3574 93.6897 38.2949 94.8581C38.1716 97.1631 36.9817 98.7402 34.867 99.6347C34.6668 99.7194 34.4657 99.802 34.2646 99.8846C34.0795 99.9607 33.8814 100 33.6813 100L22.6713 100ZM49.955 8.20311H70.3512C72.3768 8.20311 72.3768 8.20311 72.3716 6.16673C72.3654 3.73499 71.5713 2.93001 69.1726 2.92992C56.3884 2.9294 43.6042 2.92939 30.82 2.92989C30.7517 2.92989 30.6834 2.92932 30.6151 2.92874C30.423 2.92712 30.2309 2.9255 30.0395 2.93669C28.7111 3.01435 27.7917 3.86903 27.6698 5.19954C27.6389 5.53605 27.6419 5.87569 27.6448 6.21531C27.6478 6.55988 27.6508 6.90443 27.6185 7.24568C27.5465 8.00655 27.8058 8.22471 28.583 8.22133C34.1004 8.19732 39.618 8.19956 45.1356 8.20181C46.7421 8.20246 48.3485 8.20311 49.955 8.20311ZM28.125 90.6252C27.5221 90.6252 26.9193 90.6263 26.3164 90.6273H26.3146C24.672 90.6303 23.0293 90.6332 21.3869 90.6144C20.8477 90.6083 20.6367 90.7493 20.6576 91.3188C20.6785 91.8887 20.6748 92.4595 20.6712 93.0303V93.0304C20.6678 93.5666 20.6643 94.1028 20.6812 94.6383C20.7259 96.0522 21.6798 97.0411 23.0951 97.0555C26.3825 97.0889 29.6701 97.0889 32.958 97.0555C34.3727 97.0411 35.3269 96.053 35.3729 94.6383C35.3904 94.0998 35.3869 93.5606 35.3835 93.0213C35.3799 92.4535 35.3763 91.8857 35.3971 91.3188C35.418 90.7494 35.207 90.608 34.6678 90.6144C33.0752 90.6334 31.4825 90.6304 29.8897 90.6274C29.3015 90.6263 28.7132 90.6252 28.125 90.6252ZM71.9287 97.0697C72.4154 97.0697 72.9022 97.0711 73.3889 97.0726C74.4972 97.0759 75.6056 97.0793 76.7137 97.0653C78.3513 97.0447 79.2971 96.0873 79.3267 94.4377C79.3356 93.9403 79.3333 93.4428 79.331 92.9453C79.3285 92.401 79.3261 91.8568 79.3382 91.3129C79.3486 90.845 79.2559 90.6123 78.7052 90.6147C74.2131 90.634 69.721 90.6339 65.2289 90.6145C64.6641 90.612 64.5992 90.87 64.6079 91.3242C64.618 91.852 64.6159 92.38 64.6137 92.9081C64.6115 93.4217 64.6094 93.9354 64.6186 94.4489C64.6481 96.0923 65.5984 97.0455 67.2413 97.0656C68.3276 97.0789 69.4141 97.0757 70.5005 97.0725C70.9766 97.0711 71.4527 97.0697 71.9287 97.0697ZM25.9964 78.3203C26.7347 78.3203 27.2321 77.5653 26.9404 76.8871L26.94 76.8861L26.9386 76.8829L26.9385 76.8826C26.374 75.57 25.8298 74.3048 25.2933 73.0363C25.1469 72.6902 24.879 72.6905 24.5821 72.6907H24.5765C24.0541 72.6912 23.5317 72.6919 23.0093 72.6925H23.0063C20.6374 72.6956 18.2685 72.6986 15.8997 72.6834C15.3962 72.6802 15.2153 72.8327 15.2253 73.3479C15.2529 74.7773 15.2611 76.2083 15.2218 77.6371C15.2058 78.2169 15.4227 78.3401 15.9525 78.3307C17.1208 78.3099 18.2895 78.3136 19.4583 78.3173C19.9145 78.3188 20.3708 78.3203 20.827 78.3203L25.9964 78.3203ZM72.6903 77.7489C72.5747 78.0193 72.773 78.3199 73.0671 78.3198C73.8202 78.3196 74.5674 78.3193 75.3101 78.3189C78.2952 78.3173 81.2058 78.3157 84.1162 78.3303C84.631 78.3329 84.7862 78.1753 84.7756 77.6663C84.7459 76.2371 84.7512 74.8066 84.7732 73.3771C84.7805 72.8984 84.6667 72.6788 84.1296 72.6827C81.205 72.7037 78.2803 72.6969 75.3556 72.6873C75.2125 72.6672 75.0669 72.6969 74.9431 72.7714C74.8193 72.8459 74.7249 72.9606 74.6755 73.0963C74.1457 74.3502 73.6098 75.6015 73.0498 76.9092L73.0491 76.9109L73.0476 76.9144L72.6903 77.7489ZM2.92969 31.7438V38.6699C2.92969 40.599 2.9305 40.599 4.80353 40.6413L4.91177 40.6438C5.67437 40.6613 5.88372 40.4549 5.87797 39.683C5.85045 35.9899 5.85381 32.2966 5.85716 28.6034C5.85827 27.3866 5.85937 26.1698 5.85938 24.953C5.85938 22.8387 5.85934 22.8387 3.80577 22.8359L3.73055 22.8358C3.0972 22.8348 2.90691 23.0047 2.91516 23.6473C2.94052 25.625 2.93656 27.603 2.9326 29.5811C2.93116 30.302 2.92971 31.0229 2.92969 31.7438ZM94.1406 31.6365V38.6601C94.1406 40.6017 94.1413 40.6017 96.0158 40.6402L96.113 40.6422C96.8555 40.6577 97.0966 40.4846 97.0902 39.6927C97.0604 36.0072 97.0641 32.3215 97.0679 28.6357C97.0691 27.4114 97.0703 26.187 97.0703 24.9627C97.0703 22.8522 97.0699 22.8522 95.0559 22.8328L94.9514 22.8317C94.215 22.8244 94.1202 23.1042 94.1276 23.7351C94.1503 25.6629 94.1468 27.5911 94.1432 29.5193C94.1419 30.225 94.1406 30.9308 94.1406 31.6365ZM50.0016 59.1796C40.6924 59.1796 31.3832 59.1794 22.0741 59.1791C19.4982 59.1788 18.1661 57.8507 18.1656 55.2752C18.1636 44.7943 18.1636 34.3133 18.1656 23.8324C18.1661 21.2571 19.4983 19.9228 22.0712 19.9226C40.6896 19.921 59.3079 19.921 77.9263 19.9226C80.4992 19.9228 81.8352 21.2582 81.8357 23.8298C81.8378 34.3107 81.8378 44.7917 81.8357 55.2726C81.8352 57.8474 80.5012 59.1788 77.9291 59.1791C68.6199 59.1803 59.3108 59.1804 50.0016 59.1796ZM50.0426 56.2499C52.0505 56.2499 54.0583 56.2494 56.0662 56.2489C63.2693 56.2471 70.4724 56.2454 77.6754 56.2662C78.5716 56.2688 78.9306 56.0734 78.9275 55.0845C78.8941 44.7345 78.8938 34.3845 78.9265 24.0343C78.9294 23.0669 78.605 22.8336 77.6882 22.8347C59.2338 22.8571 40.7794 22.8558 22.325 22.8307C21.3124 22.8292 21.0725 23.1564 21.0754 24.1189C21.099 32.0614 21.0973 40.0039 21.0956 47.9464C21.0951 50.2889 21.0946 52.6314 21.0948 54.9739C21.0949 56.2479 21.0972 56.2495 22.4098 56.2496C31.6207 56.2501 40.8317 56.2502 50.0426 56.2499ZM35.5294 69.2086C35.2729 68.6241 35.7011 67.9687 36.3394 67.9687H38.6085C43.1655 67.9761 47.7224 67.9744 52.2794 67.9635C53.281 67.9611 53.8971 67.3958 53.9147 66.5406C53.9323 65.6828 53.319 65.0969 52.3435 65.0415C52.2727 65.0375 52.2017 65.0381 52.1306 65.0388H52.1303C52.1037 65.039 52.0772 65.0392 52.0506 65.0392C46.3218 65.0298 40.593 65.0311 34.8642 65.0432C32.4625 65.0482 31.2976 66.8784 32.2708 69.1006C32.8837 70.5002 33.5023 71.8973 34.1208 73.2944L34.1218 73.2968L34.1222 73.2977L34.1227 73.2987L34.1231 73.2996L34.1235 73.3005C35.0037 75.2888 35.8839 77.277 36.7481 79.2723C37.3333 80.6235 38.2758 81.2673 39.771 81.2615C46.5739 81.2319 53.3768 81.2324 60.1796 81.2632C61.7155 81.2701 62.6796 80.6228 63.2725 79.2282C64.0533 77.392 64.8624 75.5678 65.6714 73.7436C65.9955 73.0129 66.3195 72.2823 66.6417 71.5509C66.7763 71.2454 66.9153 70.9415 67.0542 70.6376L67.0543 70.6374C67.3481 69.9949 67.6418 69.3525 67.8946 68.6943C68.5287 67.043 67.5697 65.2152 65.8634 65.1058C63.6271 64.9624 61.3739 65.0201 59.1305 65.0829C58.3177 65.1057 57.8669 65.7244 57.849 66.5459C57.8497 66.7345 57.8881 66.921 57.9619 67.0945C58.0356 67.268 58.1433 67.425 58.2786 67.5564C58.4138 67.6878 58.5739 67.7908 58.7495 67.8595C58.9251 67.9282 59.1127 67.9611 59.3011 67.9563C60.1019 67.9822 60.9037 67.9773 61.7055 67.9725H61.7061C62.0436 67.9704 62.3811 67.9683 62.7186 67.9686C63.2112 67.9689 63.7038 67.9689 64.2387 67.9688C64.6095 67.9687 64.8578 68.35 64.7078 68.6891C64.4556 69.2592 64.2053 69.8246 63.9566 70.3861C62.8181 72.9576 61.7148 75.4494 60.6255 77.9472C60.4608 78.3249 60.1977 78.3226 59.9059 78.3201C59.8819 78.3199 59.8578 78.3197 59.8335 78.3197C53.291 78.3106 46.7485 78.3145 40.206 78.3312C40.0021 78.3568 39.7957 78.3093 39.6234 78.1972C39.4511 78.0851 39.3241 77.9157 39.2649 77.7188C38.654 76.2891 38.0244 74.8673 37.3949 73.4455C37.1429 72.8764 36.8908 72.3073 36.64 71.7376C36.2752 70.9089 35.9115 70.0798 35.5294 69.2086ZM49.9057 16.9921C44.9585 16.9921 40.0112 16.9918 35.0639 16.9911C34.7717 17.0121 34.4781 17.0015 34.1882 16.9595C33.4382 16.7914 32.9818 16.3282 32.9818 15.5273C32.9817 14.7271 33.4356 14.262 34.1868 14.0947C34.4768 14.0529 34.7704 14.0424 35.0626 14.0634C45.0222 14.0623 54.9819 14.0623 64.9415 14.0634C65.2337 14.0425 65.5273 14.0529 65.8173 14.0945C66.5691 14.2609 67.0237 14.7267 67.0243 15.526C67.0248 16.3257 66.5688 16.7908 65.8185 16.9592C65.5286 17.0014 65.235 17.0121 64.9428 16.9911C59.9305 16.9925 54.9181 16.9929 49.9057 16.9921ZM48.1175 74.6101C48.7472 74.6097 49.377 74.6092 50.0067 74.6092C50.6371 74.6092 51.2675 74.6097 51.8979 74.6102H51.9029C53.4152 74.6114 54.9275 74.6126 56.4397 74.6068C57.5844 74.6025 58.228 74.0621 58.2244 73.1407C58.2208 72.2229 57.5765 71.6842 56.4272 71.6824C52.1385 71.6754 47.8498 71.6755 43.5612 71.6826C42.4183 71.6845 41.7736 72.233 41.7774 73.1532C41.7811 74.073 42.4225 74.603 43.5737 74.607C45.0865 74.6124 46.5993 74.6112 48.1121 74.6101H48.1175ZM26.1897 14.0703C26.4807 14.0715 26.7647 14.1599 27.005 14.3239C27.2454 14.488 27.4311 14.7202 27.5383 14.9908C27.6454 15.2613 27.6691 15.5578 27.6063 15.8419C27.5435 16.1261 27.397 16.3849 27.1858 16.585C26.9745 16.7852 26.7082 16.9175 26.4211 16.9649C26.1339 17.0124 25.8392 16.9727 25.5748 16.8511C25.3104 16.7295 25.0885 16.5316 24.9377 16.2827C24.7868 16.0339 24.7139 15.7456 24.7284 15.4549C24.7438 15.0793 24.9051 14.7246 25.178 14.466C25.4509 14.2075 25.8138 14.0655 26.1897 14.0703ZM73.003 16.7375C73.2446 16.8994 73.5293 16.9852 73.8201 16.9839C74.1963 16.9853 74.5581 16.8399 74.8288 16.5786C75.0994 16.3174 75.2575 15.9609 75.2694 15.5849C75.281 15.2943 75.2053 15.0068 75.052 14.7596C74.8988 14.5123 74.675 14.3166 74.4096 14.1976C74.1442 14.0787 73.8492 14.0419 73.5626 14.092C73.2761 14.1421 73.0111 14.2769 72.8019 14.4789C72.5926 14.6809 72.4485 14.941 72.3883 15.2255C72.3281 15.5101 72.3545 15.8062 72.464 16.0757C72.5736 16.3452 72.7613 16.5757 73.003 16.7375Z" fill="#002B4F"/>
</svg>
