<svg width="24" height="28" viewBox="0 0 24 28" fill="none" xmlns="http://www.w3.org/2000/svg">
<path d="M9.7 15.2998C9.3 14.8998 8.7 14.8998 8.3 15.2998C7.9 15.6998 7.9 16.2998 8.3 16.6998L11.3 19.6998C11.5 19.8998 11.7 19.9998 12 19.9998C12.3 19.9998 12.5 19.8998 12.7 19.6998L19.7 11.6998C20 11.1998 20 10.5998 19.5 10.2998C19.1 9.99978 18.5 9.99978 18.2 10.3998L12 17.4998L9.7 15.2998Z" fill="#00A88E"/>
<path d="M21 15C20.4 15 20 15.4 20 16C20 20.4 16.4 24 12 24C7.6 24 4 20.4 4 16C4 13.9 4.8 11.9 6.3 10.4C7.8 8.8 9.8 8 12 8C12.6 8 13.3 8.1 13.9 8.2C14.4 8.4 15 8.1 15.2 7.5C15.4 6.9 15 6.5 14.5 6.3H14.4C13.6 6.1 12.8 6 12 6C6.5 6 2 10.5 2 16.1C2 18.7 3.1 21.3 4.9 23.1C6.8 25 9.3 26 11.9 26C17.4 26 21.9 21.5 21.9 16C22 15.4 21.5 15 21 15Z" fill="#00A88E"/>
</svg>
