<svg width="110" height="96" viewBox="0 0 110 96" fill="none" xmlns="http://www.w3.org/2000/svg">
<path d="M55 37.2661C65.1822 37.2661 73.4365 29.0118 73.4365 18.8296C73.4365 8.64738 65.1822 0.393066 55 0.393066C44.8178 0.393066 36.5635 8.64738 36.5635 18.8296C36.5635 29.0118 44.8178 37.2661 55 37.2661Z" fill="#00A88E"/>
<path d="M92.2969 37.2661C98.7339 37.2661 103.952 32.0479 103.952 25.6108C103.952 19.1738 98.7339 13.9556 92.2969 13.9556C85.8598 13.9556 80.6416 19.1738 80.6416 25.6108C80.6416 32.0479 85.8598 37.2661 92.2969 37.2661Z" fill="#00A88E"/>
<path d="M17.7031 37.2661C24.1402 37.2661 29.3584 32.0479 29.3584 25.6108C29.3584 19.1738 24.1402 13.9556 17.7031 13.9556C11.2661 13.9556 6.04785 19.1738 6.04785 25.6108C6.04785 32.0479 11.2661 37.2661 17.7031 37.2661Z" fill="#00A88E"/>
<path d="M29.1867 47.7324C24.5988 43.9734 20.4438 44.471 15.139 44.471C7.2049 44.471 0.75 50.8878 0.75 58.7731V81.9162C0.75 85.3408 3.54515 88.1253 6.98239 88.1253C21.8219 88.1253 20.0342 88.3938 20.0342 87.4853C20.0342 71.0862 18.0918 59.0598 29.1867 47.7324Z" fill="#00A88E"/>
<path d="M60.0457 44.5557C50.78 43.7829 42.7262 44.5646 35.7794 50.2986C24.1544 59.6101 26.3916 72.1476 26.3916 87.4853C26.3916 91.5432 29.6932 94.9065 33.8128 94.9065C78.5441 94.9065 80.3244 96.3494 82.9769 90.4754C83.8468 88.4889 83.6084 89.1202 83.6084 70.1168C83.6084 55.023 70.539 44.5557 60.0457 44.5557Z" fill="#00A88E"/>
<path d="M94.861 44.471C89.5271 44.471 85.395 43.9785 80.8132 47.7323C91.8253 58.9757 89.9658 70.1815 89.9658 87.4853C89.9658 88.3995 88.4818 88.1253 102.795 88.1253C106.355 88.1253 109.25 85.2411 109.25 81.6958V58.7731C109.25 50.8877 102.795 44.471 94.861 44.471Z" fill="#00A88E"/>
</svg>
