<svg width="110" height="107" viewBox="0 0 110 107" fill="none" xmlns="http://www.w3.org/2000/svg">
<path d="M34.8703 90.2043C39.8015 87.0319 43.8745 83.3743 46.0614 79.8968C47.1358 78.1845 47.7313 76.5698 47.6889 75.1393C47.6529 73.8721 47.0701 72.6875 45.8156 71.6788C44.453 70.5853 42.3614 69.6783 39.4116 69.0299C38.2524 70.562 37.0509 72.1047 35.862 73.6263L35.79 73.711L35.7667 73.7407L35.7243 73.8L35.6522 73.8848L35.6098 73.9441L35.5865 73.9738L35.5208 74.0586L35.4488 74.1497L35.3831 74.2345L35.3174 74.3256L35.2941 74.3553L35.2454 74.4082L35.1797 74.4994L35.1309 74.5545L35.1076 74.5841L35.0419 74.6689L34.9762 74.76L34.9169 74.8321L34.8872 74.8681V74.8744L34.8575 74.9105L34.8279 74.9465L34.7982 74.9825L34.7749 75.0249H34.7685L34.7452 75.0609L34.7156 75.097L34.6859 75.133L34.6562 75.1754L34.6266 75.2114L34.5969 75.2474L34.5905 75.2601L34.5354 75.3258L34.4761 75.3979V75.4042L34.4464 75.4403L34.4168 75.4763L34.3574 75.5547L34.3278 75.5907L34.2981 75.6331L34.2684 75.6691L34.2388 75.7115L34.2091 75.7475L34.1794 75.7899H34.1731L34.1434 75.8259V75.8323L34.1137 75.8683L34.0841 75.9107L34.0544 75.9467L34.0247 75.9891H34.0184L33.9887 76.0315L33.959 76.0675L33.9294 76.1099L33.8997 76.1523H33.8933L33.8637 76.1947L33.834 76.2307V76.2371L33.798 76.2731V76.2794L33.7683 76.3155V76.3218L33.7386 76.3578L33.7323 76.3642L33.7026 76.4002V76.4066L33.673 76.4426L33.6666 76.449L33.6369 76.485V76.4913L33.6009 76.5337L33.5712 76.5761L33.5352 76.6185L33.4992 76.6609V76.6672L33.4695 76.7096H33.4632L33.4335 76.752L33.3975 76.7944V76.8007L33.3254 76.8855V76.8919L33.2957 76.9342H33.2894L33.2597 76.983H33.2534L33.2237 77.0254L33.2173 77.0317L33.1877 77.0741H33.1813L33.1453 77.1229L33.0732 77.2182L33.0372 77.2669L33.0012 77.3157L32.9588 77.3644L32.9228 77.4132C32.4714 77.9896 31.9204 78.441 31.2826 78.7525C30.6405 79.064 29.9433 79.2272 29.2164 79.2272C28.4895 79.2272 27.7923 79.064 27.1502 78.7525C26.5145 78.441 25.9614 77.9896 25.51 77.4132C24.6942 76.3684 24.0754 75.5759 23.4439 74.777C20.0681 70.4815 16.4465 65.8745 14.054 61.8799C12.9075 63.5307 11.831 65.2387 10.8096 66.9912C9.29014 69.6041 7.90846 72.2764 6.63485 75.0037C6.44837 75.4 6.1305 75.7009 5.75753 75.8683C10.3773 85.6651 17.9277 93.8047 27.2816 99.1577C28.1717 97.314 29.1549 95.589 30.3459 94.0929C31.5898 92.493 33.0626 91.16 34.8703 90.2043Z" fill="#00A88E"/>
<path d="M7.63933 44.3353C9.20749 44.4921 10.7926 44.5154 12.4095 44.3841C12.596 43.8606 12.8058 43.3499 13.0347 42.8456C13.2381 42.4005 13.4543 41.9682 13.6895 41.5423C14.2955 40.4361 15.0224 39.3786 15.8764 38.389C15.9612 38.2873 16.0502 38.1856 16.1413 38.0817L16.1583 38.0648L16.1752 38.0415L16.2176 37.9991L16.2346 37.9758L16.2409 37.9694L16.2536 37.9567L16.2769 37.9334L16.2939 37.9164V37.9101L16.3363 37.8677L16.3723 37.8253L16.3893 37.8084C17.4404 36.6852 18.5995 35.7486 19.8435 34.9857C21.0683 34.2355 22.3843 33.64 23.7533 33.2141C25.0142 31.6396 26.5526 30.0354 28.5171 28.4926C30.6489 26.81 33.3042 25.1952 36.6927 23.7288C43.2705 20.887 48.028 17.8418 52.1307 14.2266C56.0892 10.7427 59.4586 6.70576 63.2667 1.79783C60.0562 1.1748 56.7419 0.856934 53.347 0.856934C27.8305 0.856934 6.55221 19.0328 1.75872 43.1465C1.82441 43.1528 1.88587 43.1698 1.9452 43.1889C3.81852 43.7398 5.71727 44.1425 7.63933 44.3353Z" fill="#00A88E"/>
<path d="M83.1951 80.8589C82.161 76.6355 81.3387 72.3294 80.7984 67.9131C80.2813 63.7447 80.0482 62.3694 79.9443 62.38C79.6201 62.4224 78.5563 63.9969 77.4756 65.5947C76.0939 67.644 74.6952 69.7207 73.0126 70.3522C70.2366 71.3863 63.2879 68.1356 58.3969 63.7087C56.8351 62.2974 55.4598 60.7652 54.4511 59.2225C53.3576 57.5399 52.6859 55.8107 52.6498 54.1281C52.6011 51.761 53.7369 49.6525 56.5596 48.114C57.0767 47.8321 57.6107 47.6583 58.2126 47.4591C59.8337 46.9251 62.1775 46.1495 62.1415 42.708C62.0991 38.5503 64.7904 35.8547 68.5921 33.9496C71.4212 32.5383 74.8097 31.5889 78.0541 30.79C77.0157 27.9313 76.63 24.85 76.8885 21.8345C77.2552 17.6534 78.8763 13.5741 81.7477 10.3678C81.9766 10.1157 82.2097 9.86985 82.4449 9.63463C77.7468 6.51101 72.521 4.12062 66.9222 2.62451C66.8629 2.85974 66.7591 3.08013 66.6044 3.28568C62.436 8.67465 58.8123 13.0761 54.4829 16.8906C50.1281 20.7283 45.076 23.96 38.0956 26.9755C35.044 28.2979 32.6473 29.7622 30.7189 31.2816C30.2505 31.6482 29.8119 32.0149 29.4029 32.3878C33.5776 32.4302 37.7396 33.9009 40.9607 36.785C41.412 37.1877 41.8443 37.62 42.2576 38.082C45.1057 41.2607 46.7438 45.357 47.1104 49.574C47.4834 53.7848 46.587 58.1396 44.3598 61.8587C43.5778 63.162 42.6666 64.5309 41.6748 65.938C44.4382 66.6882 46.5276 67.7033 48.0365 68.9112C50.1747 70.6362 51.1664 72.7256 51.2321 75.044C51.2915 77.2119 50.5053 79.4942 49.0643 81.7892C46.5827 85.7244 42.0774 89.7911 36.6842 93.2495C36.6419 93.2728 36.5995 93.2982 36.5571 93.3216C35.2114 94.0294 34.0819 95.0508 33.1093 96.282C32.0709 97.5853 31.1999 99.111 30.4179 100.751L30.3946 100.794C37.3327 104.157 45.1184 106.049 53.347 106.049C66.225 106.049 78.0181 101.417 87.16 93.7348C87.0159 93.5674 86.8951 93.3682 86.8167 93.1393C85.4605 89.1532 84.2292 85.0696 83.1951 80.8589Z" fill="#00A88E"/>
<path d="M12.3247 58.1625C11.3754 55.4055 11.0278 52.4493 11.28 49.5546C11.3287 49.0269 11.3944 48.5098 11.4792 47.9864C10.0615 48.0458 8.66711 47.9991 7.29178 47.8593C5.20655 47.6558 3.17641 47.2341 1.1823 46.6577C0.900459 48.8828 0.75 51.1524 0.75 53.4538C0.75 59.9829 1.93884 66.2301 4.11307 71.9984C5.24258 69.6673 6.43777 67.3914 7.72409 65.1917C9.12272 62.7822 10.6443 60.4406 12.3247 58.1625Z" fill="#00A88E"/>
<path d="M101.86 45.4098L101.795 45.4882L101.735 45.573L101.699 45.6154L101.67 45.6578L101.604 45.7362L101.545 45.8209H101.538L101.479 45.8994L101.413 45.9841L101.384 46.0265L101.354 46.0625L101.288 46.1473L101.223 46.2321L101.163 46.3105L101.098 46.3952L101.068 46.4376L101.032 46.4736L100.973 46.5584L100.907 46.6368L100.848 46.7216L100.782 46.8L100.752 46.8424L100.723 46.8784L100.657 46.9632L100.591 47.0416L100.561 47.0839L100.538 47.12L100.508 47.156L100.449 47.2344L100.419 47.2704L100.39 47.3065L100.36 47.3425L100.33 47.3849L100.301 47.4209L100.271 47.4569L100.241 47.4929L100.212 47.5353L100.182 47.5714L100.159 47.6074H100.152L100.129 47.6498H100.123L100.099 47.6858H100.093L100.07 47.7218H100.063L100.04 47.7642H100.034L100.01 47.8002H100.004L99.9554 47.8659L99.949 47.8786H99.9257L99.896 47.9147V47.921L99.8664 47.957L99.8367 47.9931L99.807 48.0354L99.7774 48.0715V48.0778L99.718 48.1499V48.1562L99.6884 48.1923H99.682L99.6524 48.2346L99.6227 48.2707V48.277L99.593 48.3131L99.5634 48.3554H99.557L99.5273 48.3978L99.4977 48.4338V48.4402L99.468 48.4762L99.4616 48.4826L99.432 48.5186L99.4023 48.561L99.3663 48.6034L99.3366 48.6458L99.3006 48.6881L99.2709 48.7305L99.2349 48.7729L99.2052 48.8153V48.8216L99.1692 48.8577V48.864L99.1395 48.9064H99.1332L99.1035 48.9488L99.0675 48.9912V48.9975L99.0314 49.0399L99.0018 49.0823H98.9954L98.9658 49.131L98.9297 49.1734L98.8937 49.2222L98.8577 49.2645V49.2709L98.8217 49.3133L98.7496 49.4086L98.7136 49.451V49.4574L98.6775 49.4998H98.6712L98.6352 49.5485L98.5991 49.5972L98.5631 49.646L98.5207 49.699C98.0757 50.2754 97.5184 50.7204 96.8805 51.0319C96.2384 51.3498 95.5476 51.5129 94.8144 51.5129H94.7847L94.755 51.5066H94.5812L94.5685 51.5002H94.4774L94.4477 51.4939H94.4054C94.3757 51.4875 94.346 51.4875 94.31 51.4812H94.2931L94.2634 51.4748H94.2337L94.2146 51.4684H94.2019L94.1786 51.4621H94.1426L94.1129 51.4557L94.0833 51.4494L94.0536 51.443H94.0239L94.0176 51.4367H93.9943L93.9815 51.4303H93.9646L93.9519 51.4239H93.9349L93.918 51.4176L93.8586 51.4049H93.8459L93.8226 51.3985L93.7929 51.3922L93.7633 51.3858H93.7569L93.7336 51.3794L93.7272 51.3731L93.7039 51.3667H93.6976L93.6743 51.3604H93.6615L93.6446 51.354L93.6319 51.3477H93.6149L93.6022 51.3413L93.5662 51.3286H93.5598L93.5365 51.3222H93.5302L93.5068 51.3095H93.5005L93.4708 51.3032L93.4412 51.2904L93.4178 51.2841H93.4115L93.3882 51.2714H93.3818L93.3585 51.265L93.3458 51.2587L93.3267 51.2523H93.314L93.2971 51.2459L93.2737 51.2332L93.2568 51.2269L93.2441 51.2205L93.2271 51.2141H93.2144L93.1911 51.2014H93.1847L93.1614 51.1887L93.1318 51.176L93.1021 51.1633L93.0788 51.1569L93.0724 51.1506L93.0491 51.1442L93.0428 51.1379L93.0194 51.1315L93.0131 51.1251L92.994 51.1188L92.9771 51.1124L92.9643 51.1061L92.9474 51.0997L92.9347 51.0934C92.8796 51.07 92.8202 51.0446 92.7673 51.0213C92.1315 50.7098 91.5784 50.2584 91.1207 49.6757C90.3048 48.6246 89.686 47.8384 89.0609 47.0394C85.6851 42.7439 82.0571 38.1306 79.671 34.1424L79.6222 34.0703C76.3355 34.8692 72.8516 35.7889 70.1963 37.1219C67.5537 38.4442 65.6783 40.1904 65.7037 42.6846C65.7631 48.722 61.9677 49.9702 59.3421 50.8369C58.8737 50.9874 58.4584 51.1251 58.2719 51.2269C56.7885 52.0385 56.193 53.0175 56.2121 54.0623C56.2291 55.0286 56.6932 56.1348 57.4433 57.2876C58.2846 58.5739 59.4565 59.8708 60.7895 61.0787C64.8561 64.7618 70.101 67.6629 71.7941 67.0314C72.3939 66.8025 73.4831 65.1984 74.5511 63.6069C76.0833 61.3309 77.5964 59.0889 79.5311 58.8494C81.7541 58.5782 83.5024 60.6634 84.3437 67.487C84.8777 71.8122 85.6703 75.9805 86.662 80.0239C87.5923 83.8192 88.7049 87.5574 89.9425 91.2447C99.824 81.681 105.963 68.2859 105.963 53.4541C105.963 49.4531 105.512 45.5539 104.666 41.8073C103.74 43.0025 102.797 44.2083 101.86 45.4098Z" fill="#00A88E"/>
<path d="M18.7775 40.4426C16.4465 43.0492 15.1262 46.4017 14.8253 49.8559C14.5138 53.3948 15.2703 57.0101 17.0843 60.0383C19.3242 63.7934 22.8992 68.3348 26.2199 72.5624C27.0061 73.5542 27.7754 74.5332 28.2988 75.2114C28.4259 75.3682 28.5573 75.4826 28.6887 75.5483C28.8265 75.614 28.996 75.65 29.1994 75.65C29.4029 75.65 29.5724 75.614 29.7101 75.5483C29.8415 75.4826 29.975 75.3682 30.1001 75.2114C30.6235 74.5332 31.397 73.5542 32.1789 72.5561C35.5018 68.3326 39.0683 63.7913 41.3146 60.0383C43.1412 56.9868 43.8745 53.3821 43.5672 49.8813C43.2599 46.3911 41.927 43.028 39.615 40.4448C39.2908 40.0845 38.9538 39.7412 38.5936 39.4233C35.9976 37.0986 32.6049 35.9331 29.2037 35.9268C25.8046 35.9268 22.4097 37.0859 19.8032 39.4233C19.4493 39.7391 19.1081 40.0824 18.7775 40.4426ZM29.1994 40.7605C31.7954 40.7605 34.1497 41.8116 35.8493 43.5175C37.5552 45.2171 38.6063 47.5714 38.6063 50.1674C38.6063 52.7676 37.5552 55.1177 35.8493 56.8236C34.1497 58.5231 31.7954 59.5742 29.1994 59.5742C26.5992 59.5742 24.2491 58.5231 22.5432 56.8236C20.8437 55.1177 19.7862 52.7697 19.7862 50.1674C19.7862 47.5714 20.8437 45.2171 22.5432 43.5175C24.2491 41.8116 26.5971 40.7605 29.1994 40.7605Z" fill="#00A88E"/>
<path d="M29.1995 56.0183C30.8164 56.0183 32.2743 55.3635 33.3318 54.306C34.3956 53.2486 35.0504 51.7821 35.0504 50.1674C35.0504 48.5504 34.3956 47.0925 33.3318 46.0287C32.2743 44.9712 30.8142 44.3164 29.1995 44.3164C27.5847 44.3164 26.1182 44.9712 25.0608 46.0287C24.0033 47.0925 23.3485 48.5526 23.3485 50.1674C23.3485 51.7843 24.0033 53.2486 25.0608 54.306C26.1182 55.3635 27.5826 56.0183 29.1995 56.0183Z" fill="#00A88E"/>
<path d="M94.808 16.6001C93.1911 16.6001 91.7331 17.2549 90.6693 18.3124C89.6119 19.3698 88.957 20.8363 88.957 22.451C88.957 24.0679 89.6119 25.5259 90.6693 26.5897C91.7331 27.6472 93.1932 28.302 94.808 28.302C96.4249 28.302 97.8892 27.6472 98.9467 26.5897C100.004 25.5259 100.659 24.0658 100.659 22.451C100.659 20.8341 100.004 19.3698 98.9467 18.3124C97.8892 17.2549 96.4228 16.6001 94.808 16.6001Z" fill="#00A88E"/>
<path d="M109.182 22.1562C108.875 18.666 107.536 15.3071 105.23 12.726C104.906 12.3658 104.562 12.0225 104.209 11.7046C101.608 9.37989 98.2198 8.20801 94.8186 8.20801C91.4174 8.20801 88.0183 9.36718 85.4118 11.7046C85.0579 12.0225 84.7146 12.3658 84.3903 12.726C82.0529 15.3326 80.7391 18.685 80.4318 22.1392C80.1245 25.6718 80.8768 29.2934 82.6908 32.3217C84.9371 36.0705 88.5057 40.6118 91.8328 44.8395C92.6147 45.8376 93.3882 46.8208 93.9116 47.4884C94.0261 47.6388 94.1574 47.7533 94.3015 47.8253H94.2952L94.3015 47.8317C94.4329 47.8974 94.6088 47.927 94.8059 47.927C95.0093 47.927 95.1852 47.8974 95.3166 47.8317C95.4544 47.766 95.5879 47.6516 95.7065 47.4884C96.2342 46.8166 97.0035 45.8354 97.7854 44.8395C101.112 40.6096 104.681 36.0683 106.927 32.3217C108.756 29.2701 109.489 25.6591 109.182 22.1562ZM101.464 29.1006C99.7583 30.8065 97.4103 31.8576 94.808 31.8576C92.2121 31.8576 89.8577 30.8065 88.1582 29.1006C86.4523 27.4011 85.4012 25.0467 85.4012 22.4507C85.4012 19.8506 86.4523 17.5004 88.1582 15.7945C89.8577 14.095 92.2121 13.0439 94.808 13.0439C97.4082 13.0439 99.7583 14.095 101.464 15.7945C103.164 17.5004 104.215 19.8484 104.215 22.4507C104.215 25.0467 103.164 27.4011 101.464 29.1006Z" fill="#00A88E"/>
</svg>
