<svg width="104" height="110" viewBox="0 0 104 110" fill="none" xmlns="http://www.w3.org/2000/svg">
<path d="M33.4775 73.445C27.4584 78.1725 23.5834 85.5092 23.5834 93.75V101.5H8.08337C3.79504 101.5 0.333374 98.0383 0.333374 93.75V88.5833C0.333374 78.5858 8.41921 70.5 18.4167 70.5H23.5834C27.2517 70.5 30.6359 71.585 33.4775 73.445Z" fill="#00A88E"/>
<path d="M83 70.5C89.4203 70.5 94.625 65.2953 94.625 58.875C94.625 52.4547 89.4203 47.25 83 47.25C76.5797 47.25 71.375 52.4547 71.375 58.875C71.375 65.2953 76.5797 70.5 83 70.5Z" fill="#00A88E"/>
<path d="M21 70.5C27.4203 70.5 32.625 65.2953 32.625 58.875C32.625 52.4547 27.4203 47.25 21 47.25C14.5797 47.25 9.375 52.4547 9.375 58.875C9.375 65.2953 14.5797 70.5 21 70.5Z" fill="#00A88E"/>
<path d="M103.667 88.5833V93.75C103.667 98.0383 100.205 101.5 95.9167 101.5H80.4167V93.75C80.4167 85.5092 76.5417 78.1725 70.5225 73.445C73.3642 71.585 76.7484 70.5 80.4167 70.5H85.5834C95.5809 70.5 103.667 78.5858 103.667 88.5833Z" fill="#00A88E"/>
<path d="M52 73.0832C59.8471 73.0832 66.2084 66.7219 66.2084 58.8748C66.2084 51.0278 59.8471 44.6665 52 44.6665C44.153 44.6665 37.7917 51.0278 37.7917 58.8748C37.7917 66.7219 44.153 73.0832 52 73.0832Z" fill="#00A88E"/>
<path d="M54.5833 73.083H49.4167C38.0216 73.083 28.75 82.3546 28.75 93.7497V101.5C28.75 105.773 32.2272 109.25 36.5 109.25H67.5C71.7728 109.25 75.25 105.773 75.25 101.5V93.7497C75.25 82.3546 65.9784 73.083 54.5833 73.083Z" fill="#00A88E"/>
<path d="M89.4584 36.1003L83.2248 38.3168C81.4552 38.9446 79.6081 37.6038 79.6598 35.7258L79.8406 29.1124L75.8054 23.8683C74.661 22.3803 75.3663 20.2077 77.1669 19.6755L83.5141 17.8052L87.2548 12.3466C88.3165 10.7992 90.6002 10.7992 91.6619 12.3466L95.4026 17.8052L101.75 19.6755C103.55 20.2051 104.256 22.3803 103.111 23.8683L99.0761 29.1124L99.2569 35.7258C99.3086 37.6013 97.4589 38.9446 95.6919 38.3168L89.4584 36.1003Z" fill="#00A88E"/>
<path d="M14.5417 36.1003L8.30809 38.3168C6.53851 38.9446 4.69142 37.6038 4.74309 35.7258L4.92392 29.1124L0.888757 23.8683C-0.255659 22.3803 0.449591 20.2077 2.25017 19.6755L8.59742 17.8052L12.3381 12.3466C13.3998 10.7992 15.6835 10.7992 16.7453 12.3466L20.4859 17.8052L26.8332 19.6755C28.6338 20.2051 29.339 22.3803 28.1946 23.8683L24.1594 29.1124L24.3403 35.7258C24.3919 37.6013 22.5423 38.9446 20.7753 38.3168L14.5417 36.1003Z" fill="#00A88E"/>
<path d="M52 30.2876L44.6091 32.9149C42.5114 33.6615 40.3208 32.0676 40.3828 29.8433L40.5972 22.0029L35.8129 15.7848C34.4566 14.0204 35.2936 11.4448 37.4274 10.8145L44.9527 8.59539L49.3883 2.12414C50.6464 0.287395 53.3563 0.287395 54.6144 2.12414L59.0499 8.59539L66.5752 10.8145C68.709 11.4448 69.546 14.0204 68.1898 15.7848L63.4055 22.0029L63.6199 29.8433C63.6819 32.0676 61.4886 33.6615 59.3935 32.9149L52 30.2876Z" fill="#00A88E"/>
</svg>
