<svg width="85" height="98" viewBox="0 0 85 98" fill="none" xmlns="http://www.w3.org/2000/svg">
<path d="M20.4909 51.7915C20.5107 51.8113 20.5206 51.841 20.5206 51.8707V61.4727C20.5206 61.5024 20.5107 61.5222 20.4909 61.5519C20.4711 61.5717 20.4414 61.5915 20.4117 61.5915H10.8097C10.78 61.5915 10.7602 61.5717 10.7305 61.5519C10.7107 61.5321 10.6909 61.5024 10.6909 61.4727V51.8707C10.6909 51.841 10.7107 51.8113 10.7305 51.7915C10.7503 51.7717 10.78 51.7618 10.8097 51.7618H20.4117C20.4414 51.7519 20.4711 51.7717 20.4909 51.7915ZM20.4117 31.2214H10.8097C10.78 31.2214 10.7602 31.2412 10.7305 31.2511C10.7107 31.2709 10.6909 31.3006 10.6909 31.3303V40.9323C10.6909 40.962 10.7107 40.9917 10.7305 41.0115C10.7503 41.0313 10.78 41.0412 10.8097 41.0412H20.4117C20.4414 41.0412 20.4711 41.0313 20.4909 41.0115C20.5107 40.9917 20.5206 40.962 20.5206 40.9323V31.3303C20.5206 31.3006 20.5107 31.2709 20.4909 31.2511C20.4711 31.2412 20.4414 31.2214 20.4117 31.2214ZM20.4117 10.7008H10.8097C10.78 10.7008 10.7602 10.7206 10.7305 10.7404C10.7107 10.7602 10.6909 10.7899 10.6909 10.8196V20.4216C10.6909 20.4513 10.7107 20.481 10.7305 20.5008C10.7503 20.5206 10.78 20.5305 10.8097 20.5305H20.4117C20.4414 20.5305 20.4711 20.5206 20.4909 20.5008C20.5107 20.481 20.5206 20.4513 20.5206 20.4216V10.8196C20.5206 10.7899 20.5107 10.7701 20.4909 10.7404C20.4711 10.7107 20.4414 10.7008 20.4117 10.7008ZM49.099 81.8745C49.099 85.9331 50.3562 89.6947 52.4943 92.803H7.03818C5.09798 92.803 3.33596 92.0111 2.05899 90.7341C0.78202 89.4572 0 87.705 0 85.7648V7.03818C0 5.09798 0.78202 3.34586 2.05899 2.06889C3.33596 0.791919 5.09798 0 7.03818 0H64.7196C66.6598 0 68.4218 0.791919 69.6988 2.06889C70.9758 3.34586 71.7578 5.09798 71.7578 7.03818V62.8883C70.659 62.6903 69.5305 62.5913 68.3822 62.5913C63.0566 62.5913 58.2358 64.7493 54.7513 68.2436C51.257 71.7281 49.099 76.5588 49.099 81.8745ZM30.2711 10.8988C30.2711 11.7699 30.9838 12.4826 31.8549 12.4826H60.4333C61.3044 12.4826 62.0073 11.7699 62.0073 10.8988C62.0073 10.0277 61.3044 9.32485 60.4333 9.32485H31.8549C30.9739 9.32485 30.2711 10.0277 30.2711 10.8988ZM30.2711 20.3226C30.2711 21.1937 30.9838 21.8966 31.8549 21.8966H60.4333C61.3044 21.8966 62.0073 21.1838 62.0073 20.3226C62.0073 19.4515 61.3044 18.7388 60.4333 18.7388H31.8549C30.9739 18.7388 30.2711 19.4515 30.2711 20.3226ZM30.2711 31.4293C30.2711 32.3004 30.9838 33.0032 31.8549 33.0032H60.4333C61.3044 33.0032 62.0073 32.3004 62.0073 31.4293C62.0073 30.5582 61.3044 29.8554 60.4333 29.8554H31.8549C30.9739 29.8554 30.2711 30.5582 30.2711 31.4293ZM30.2711 40.8531C30.2711 41.7242 30.9838 42.437 31.8549 42.437H60.4333C61.3044 42.437 62.0073 41.7242 62.0073 40.8531C62.0073 39.982 61.3044 39.2792 60.4333 39.2792H31.8549C30.9739 39.2693 30.2711 39.982 30.2711 40.8531ZM30.2711 51.9598C30.2711 52.8309 30.9838 53.5337 31.8549 53.5337H60.4333C61.3044 53.5337 62.0073 52.8309 62.0073 51.9598C62.0073 51.0887 61.3044 50.376 60.4333 50.376H31.8549C30.9739 50.376 30.2711 51.0887 30.2711 51.9598ZM30.2711 61.3836C30.2711 62.2547 30.9838 62.9576 31.8549 62.9576H54.583C55.4541 62.9576 56.157 62.2547 56.157 61.3836C56.157 60.5125 55.4541 59.8097 54.583 59.8097H31.8549C30.9739 59.7998 30.2711 60.5026 30.2711 61.3836ZM23.6883 72.3913C23.6883 71.4905 23.322 70.6689 22.7281 70.0849C22.1341 69.4909 21.3125 69.1246 20.4117 69.1246H10.8097C9.90889 69.1246 9.08727 69.4909 8.50323 70.0849C7.90929 70.6788 7.54303 71.5004 7.54303 72.3913V81.9933C7.54303 82.904 7.90929 83.7158 8.50323 84.3097C9.09717 84.9036 9.91879 85.2699 10.8097 85.2699H20.4117C21.3224 85.2699 22.1341 84.9036 22.7281 84.3097C23.322 83.7158 23.6883 82.904 23.6883 81.9933V72.3913ZM23.6883 51.8707C23.6883 50.96 23.322 50.1483 22.7281 49.5543C22.1341 48.9604 21.3125 48.5941 20.4117 48.5941H10.8097C9.90889 48.5941 9.08727 48.9604 8.50323 49.5543C7.90929 50.1483 7.54303 50.9699 7.54303 51.8707V61.4727C7.54303 62.3735 7.90929 63.1952 8.50323 63.7792C9.09717 64.3731 9.91879 64.7394 10.8097 64.7394H20.4117C21.3224 64.7394 22.1341 64.3731 22.7281 63.7792C23.322 63.1853 23.6883 62.3636 23.6883 61.4727V51.8707ZM23.6883 31.3402C23.6883 30.4394 23.322 29.6178 22.7281 29.0337C22.1341 28.4398 21.3125 28.0636 20.4117 28.0636H10.8097C9.90889 28.0636 9.08727 28.4299 8.50323 29.0337C7.90929 29.6277 7.54303 30.4493 7.54303 31.3402V40.9422C7.54303 41.843 7.90929 42.6646 8.50323 43.2586C9.09717 43.8525 9.91879 44.2188 10.8097 44.2188H20.4117C21.3224 44.2188 22.1341 43.8525 22.7281 43.2586C23.322 42.6646 23.6883 41.843 23.6883 40.9422V31.3402ZM23.6883 10.8097C23.6883 9.90889 23.322 9.08727 22.7281 8.50323C22.1341 7.90929 21.3125 7.54303 20.4117 7.54303H10.8097C9.90889 7.54303 9.08727 7.90929 8.50323 8.50323C7.90929 9.09717 7.54303 9.91879 7.54303 10.8097V20.4117C7.54303 21.3224 7.90929 22.1341 8.50323 22.7281C9.09717 23.322 9.91879 23.6883 10.8097 23.6883H20.4117C21.3224 23.6883 22.1341 23.322 22.7281 22.7281C23.322 22.1341 23.6883 21.3125 23.6883 20.4117V10.8097ZM45.2483 81.9141C45.2483 81.043 44.5356 80.3303 43.6644 80.3303H31.8549C30.9838 80.3303 30.2711 81.043 30.2711 81.9141C30.2711 82.7853 30.9838 83.4881 31.8549 83.4881H43.6743C44.5455 83.4881 45.2483 82.7754 45.2483 81.9141ZM47.0994 72.4903C47.0994 71.6192 46.3966 70.9164 45.5255 70.9164H31.8549C30.9838 70.9164 30.2711 71.6192 30.2711 72.4903C30.2711 73.3614 30.9838 74.0741 31.8549 74.0741H45.5156C46.3867 74.0741 47.0994 73.3614 47.0994 72.4903ZM20.4117 72.2824H10.8097C10.78 72.2824 10.7602 72.3022 10.7305 72.322C10.7107 72.3418 10.6909 72.3715 10.6909 72.4012V82.0032C10.6909 82.0329 10.7107 82.0626 10.7305 82.0824C10.7503 82.1022 10.78 82.1121 10.8097 82.1121H20.4117C20.4414 82.1121 20.4711 82.1022 20.4909 82.0824C20.5107 82.0626 20.5206 82.0329 20.5206 82.0032V72.4012C20.5206 72.3715 20.5107 72.3517 20.4909 72.322C20.4711 72.2923 20.4414 72.2824 20.4117 72.2824ZM84.4978 81.8745C84.4978 86.3291 82.6863 90.358 79.776 93.2782C76.8558 96.1984 72.8269 98 68.3723 98C63.9178 98 59.8889 96.1984 56.9687 93.2782C54.0485 90.358 52.2469 86.3291 52.2469 81.8745C52.2469 77.4299 54.0485 73.3911 56.9687 70.4709C59.8889 67.5606 63.9178 65.7491 68.3723 65.7491C72.817 65.7491 76.8558 67.5606 79.776 70.4709C82.6962 73.401 84.4978 77.4299 84.4978 81.8745ZM79.0434 75.3709C78.4297 74.7572 77.4299 74.7572 76.8063 75.3709L67.1547 85.0323L59.9384 77.8259C59.3246 77.2121 58.3248 77.2121 57.7012 77.8259C57.0875 78.4396 57.0875 79.4394 57.7012 80.063L66.0362 88.3881C66.6499 89.0018 67.6497 89.0018 68.2733 88.3881L79.0434 77.6081C79.6671 76.9943 79.6671 75.9945 79.0434 75.3709Z" fill="#00A88E"/>
</svg>
